<svg width="16" height="17" viewBox="0 0 16 17" fill="none" xmlns="http://www.w3.org/2000/svg">
<path fill-rule="evenodd" clip-rule="evenodd" d="M2.66665 3.125C2.59848 3.125 2.51988 3.15322 2.45204 3.2253C2.38226 3.29943 2.33331 3.41226 2.33331 3.54167V10.625C2.33331 10.7544 2.38226 10.8672 2.45204 10.9414C2.51988 11.0135 2.59848 11.0417 2.66665 11.0417H3.33331C3.8856 11.0417 4.33331 11.4894 4.33331 12.0417C4.33331 12.594 3.8856 13.0417 3.33331 13.0417H2.66665C2.02757 13.0417 1.42789 12.7714 0.995637 12.3121C0.565316 11.8549 0.333313 11.247 0.333313 10.625V3.54167C0.333313 2.91963 0.565315 2.31178 0.995637 1.85457C1.42789 1.3953 2.02757 1.125 2.66665 1.125H13.3333C13.9724 1.125 14.5721 1.3953 15.0043 1.85457C15.4346 2.31178 15.6666 2.91963 15.6666 3.54167V10.625C15.6666 11.247 15.4346 11.8549 15.0043 12.3121C14.5721 12.7714 13.9724 13.0417 13.3333 13.0417H12.6666C12.1144 13.0417 11.6666 12.594 11.6666 12.0417C11.6666 11.4894 12.1144 11.0417 12.6666 11.0417H13.3333C13.4015 11.0417 13.4801 11.0135 13.5479 10.9414C13.6177 10.8672 13.6666 10.7544 13.6666 10.625V3.54167C13.6666 3.41226 13.6177 3.29943 13.5479 3.2253C13.4801 3.15322 13.4015 3.125 13.3333 3.125H2.66665Z" fill="currentColor"/>
<path fill-rule="evenodd" clip-rule="evenodd" d="M7.99997 9.625C8.30713 9.625 8.59726 9.76617 8.78682 10.0079L12.1202 14.2579C12.3563 14.559 12.3999 14.9684 12.2325 15.3125C12.0651 15.6566 11.716 15.875 11.3333 15.875H4.66663C4.28397 15.875 3.93486 15.6566 3.76743 15.3125C3.6 14.9684 3.64362 14.559 3.87978 14.2579L7.21311 10.0079C7.40268 9.76617 7.6928 9.625 7.99997 9.625ZM6.72183 13.875H9.2781L7.99997 12.2454L6.72183 13.875Z" fill="currentColor"/>
</svg>
