<svg width="17" height="18" viewBox="0 0 17 18" fill="none" xmlns="http://www.w3.org/2000/svg">
<path d="M14.1667 6.75H7.79167C7.00926 6.75 6.375 7.42157 6.375 8.25V15C6.375 15.8284 7.00926 16.5 7.79167 16.5H14.1667C14.9491 16.5 15.5833 15.8284 15.5833 15V8.25C15.5833 7.42157 14.9491 6.75 14.1667 6.75Z" stroke="#84878F" stroke-width="2" stroke-linecap="round" stroke-linejoin="round"/>
<path d="M3.54169 11.25H2.83335C2.45763 11.25 2.0973 11.092 1.83162 10.8107C1.56594 10.5294 1.41669 10.1478 1.41669 9.75V3C1.41669 2.60218 1.56594 2.22064 1.83162 1.93934C2.0973 1.65804 2.45763 1.5 2.83335 1.5H9.20835C9.58408 1.5 9.94441 1.65804 10.2101 1.93934C10.4758 2.22064 10.625 2.60218 10.625 3V3.75" stroke="#84878F" stroke-width="2" stroke-linecap="round" stroke-linejoin="round"/>
</svg>
