<svg width="60" height="60" viewBox="0 0 60 60" fill="none" xmlns="http://www.w3.org/2000/svg">
<circle cx="30" cy="30" r="30" fill="#50A3F0"/>
<path d="M23.1901 30.8101C21.5059 28.2131 20.4544 25.2573 20.1201 22.1801C20.0951 21.9036 20.1279 21.6249 20.2166 21.3617C20.3052 21.0986 20.4476 20.8568 20.6348 20.6517C20.822 20.4466 21.0499 20.2828 21.3038 20.1706C21.5578 20.0584 21.8324 20.0004 22.1101 20.0001H25.1101C25.5954 19.9953 26.0658 20.1672 26.4338 20.4836C26.8018 20.8001 27.0421 21.2395 27.1101 21.7201C27.2367 22.6802 27.4715 23.6228 27.8101 24.5301C27.9446 24.888 27.9737 25.277 27.894 25.651C27.8142 26.0249 27.6289 26.3682 27.3601 26.6401L26.0901 27.9101M28.6801 31.3101C29.6949 32.3258 30.8419 33.2004 32.0901 33.9101L33.3601 32.6401C33.6319 32.3712 33.9752 32.1859 34.3492 32.1062C34.7231 32.0264 35.1121 32.0556 35.4701 32.1901C36.3773 32.5286 37.32 32.7635 38.2801 32.8901C38.7606 32.958 39.2001 33.1984 39.5165 33.5663C39.833 33.9343 40.0048 34.4048 40.0001 34.8901V37.8901C40.0012 38.1686 39.9441 38.4443 39.8326 38.6994C39.721 38.9546 39.5574 39.1837 39.3521 39.372C39.1469 39.5602 38.9046 39.7036 38.6408 39.7928C38.377 39.882 38.0974 39.9152 37.8201 39.8901C34.7429 39.5557 31.7871 38.5042 29.1901 36.8201C27.9853 36.0552 26.8686 35.1597 25.8601 34.1501L28.6801 31.3101Z" stroke="white" stroke-width="2" stroke-linecap="round" stroke-linejoin="round"/>
<path d="M41 19L19 41" stroke="white" stroke-width="2" stroke-linecap="round" stroke-linejoin="round"/>
</svg>
