<svg width="16" height="14" viewBox="0 0 16 14" fill="none" xmlns="http://www.w3.org/2000/svg">
<g clip-path="url(#clip0_8_78)">
<path d="M14.1492 6.66176H10.3926L9.14041 8.28458H6.636L5.3838 6.66176H1.6272" stroke="#7C92CB" stroke-width="2" stroke-linecap="round" stroke-linejoin="round"/>
<path d="M3.78725 2.93467L1.6272 6.66176V9.90741C1.6272 10.1943 1.75913 10.4695 1.99396 10.6724C2.2288 10.8753 2.5473 10.9893 2.8794 10.9893H12.897C13.2291 10.9893 13.5476 10.8753 13.7824 10.6724C14.0173 10.4695 14.1492 10.1943 14.1492 9.90741V6.66176L11.9892 2.93467C11.8855 2.75442 11.7257 2.60273 11.5277 2.49666C11.3297 2.39059 11.1014 2.33433 10.8684 2.33423H4.90797C4.675 2.33433 4.4467 2.39059 4.24871 2.49666C4.05073 2.60273 3.89092 2.75442 3.78725 2.93467V2.93467Z" stroke="#7C92CB" stroke-width="2" stroke-linecap="round" stroke-linejoin="round"/>
</g>
<defs>
<clipPath id="clip0_8_78">
<rect width="15.0264" height="12.9826" fill="white" transform="translate(0.375 0.170461)"/>
</clipPath>
</defs>
</svg>
