<svg width="16" height="17" viewBox="0 0 16 17" fill="none" xmlns="http://www.w3.org/2000/svg">
<path d="M3.33331 12.0417H2.66665C2.31302 12.0417 1.97389 11.8924 1.72384 11.6267C1.47379 11.3611 1.33331 11.0007 1.33331 10.625V3.54167C1.33331 3.16594 1.47379 2.80561 1.72384 2.53993C1.97389 2.27426 2.31302 2.125 2.66665 2.125H13.3333C13.6869 2.125 14.0261 2.27426 14.2761 2.53993C14.5262 2.80561 14.6666 3.16594 14.6666 3.54167V10.625C14.6666 11.0007 14.5262 11.3611 14.2761 11.6267C14.0261 11.8924 13.6869 12.0417 13.3333 12.0417H12.6666" stroke="#84878F" stroke-width="2" stroke-linecap="round" stroke-linejoin="round"/>
<path d="M8.00002 10.625L11.3334 14.875H4.66669L8.00002 10.625Z" stroke="#84878F" stroke-width="2" stroke-linecap="round" stroke-linejoin="round"/>
</svg>
