<svg width="246" height="114" viewBox="0 0 246 114" fill="none" xmlns="http://www.w3.org/2000/svg">
<g clip-path="url(#clip0_28_401)">
<path d="M21.9968 107.916L21.6669 107.792C21.5944 107.765 14.3794 105 10.9996 98.7323C7.61965 92.4641 9.27465 84.9171 9.29176 84.8417L9.36965 84.498L9.69939 84.6217C9.77189 84.649 16.9867 87.4133 20.3667 93.6813C23.7466 99.9495 22.0916 107.496 22.0745 107.572L21.9968 107.916ZM11.5408 98.4405C14.3983 103.74 20.0998 106.457 21.5444 107.077C21.8191 105.529 22.6804 99.2675 19.8255 93.973C16.9708 88.6792 11.2671 85.9584 9.82187 85.3367C9.54706 86.8859 8.68601 93.1464 11.5408 98.4405Z" fill="#3F3D56"/>
<path d="M13.5825 96.5337C19.6565 100.188 21.9958 107.446 21.9958 107.446C21.9958 107.446 14.4872 108.78 8.41324 105.126C2.33927 101.471 0 94.213 0 94.213C0 94.213 7.50857 92.8794 13.5825 96.5337Z" fill="#D0CDE1"/>
<path d="M207.97 1.39601H140.238V0H109.526V1.39601H41.5154C40.9137 1.39601 40.318 1.51451 39.7621 1.74476C39.2062 1.975 38.7012 2.31248 38.2757 2.73791C37.8503 3.16335 37.5128 3.66841 37.2826 4.22427C37.0523 4.78012 36.9338 5.37589 36.9338 5.97754V98.723C36.9338 99.9381 37.4165 101.103 38.2757 101.963C39.1349 102.822 40.3003 103.305 41.5154 103.305H207.97C208.572 103.305 209.167 103.186 209.723 102.956C210.279 102.726 210.784 102.388 211.21 101.963C211.635 101.537 211.973 101.032 212.203 100.476C212.433 99.9204 212.552 99.3246 212.552 98.723V5.97754C212.552 5.37589 212.433 4.78012 212.203 4.22426C211.973 3.6684 211.635 3.16334 211.21 2.73791C210.784 2.31247 210.279 1.975 209.723 1.74475C209.167 1.51451 208.572 1.39601 207.97 1.39601Z" fill="#3F3D56"/>
<path d="M206.409 9.49292H43.0762V101.629H206.409V9.49292Z" fill="#837CFB"/>
<path d="M124.603 6.98005C125.528 6.98005 126.278 6.23004 126.278 5.30485C126.278 4.37965 125.528 3.62964 124.603 3.62964C123.678 3.62964 122.928 4.37965 122.928 5.30485C122.928 6.23004 123.678 6.98005 124.603 6.98005Z" fill="#837CFB"/>
<path d="M197.032 21.2192H189.29V13.4768H197.032V21.2192ZM189.627 20.8826H196.696V13.8134H189.627V20.8826Z" fill="#3F3D56"/>
<path d="M217.138 99.9541H201.197V98.8056C201.197 98.7757 201.191 98.7461 201.18 98.7185C201.169 98.6908 201.152 98.6657 201.131 98.6446C201.109 98.6234 201.084 98.6067 201.057 98.5952C201.029 98.5838 201 98.5779 200.97 98.5779H195.504C195.474 98.5779 195.445 98.5838 195.417 98.5952C195.39 98.6067 195.365 98.6234 195.343 98.6446C195.322 98.6657 195.305 98.6908 195.294 98.7185C195.283 98.7461 195.277 98.7757 195.277 98.8056V99.9541H191.861V98.8056C191.861 98.7757 191.855 98.7461 191.844 98.7185C191.832 98.6908 191.815 98.6657 191.794 98.6446C191.773 98.6234 191.748 98.6067 191.72 98.5952C191.693 98.5838 191.663 98.5779 191.633 98.5779H186.168C186.138 98.5779 186.108 98.5838 186.081 98.5952C186.053 98.6067 186.028 98.6234 186.007 98.6446C185.986 98.6657 185.969 98.6908 185.958 98.7185C185.946 98.7461 185.94 98.7757 185.94 98.8056V99.9541H182.524V98.8056C182.524 98.7757 182.519 98.7461 182.507 98.7185C182.496 98.6908 182.479 98.6657 182.458 98.6446C182.437 98.6234 182.412 98.6067 182.384 98.5952C182.356 98.5838 182.327 98.5779 182.297 98.5779H176.832C176.802 98.5779 176.772 98.5838 176.744 98.5952C176.717 98.6067 176.692 98.6234 176.671 98.6446C176.649 98.6657 176.633 98.6908 176.621 98.7185C176.61 98.7461 176.604 98.7757 176.604 98.8056V99.9541H173.188V98.8056C173.188 98.7757 173.182 98.7461 173.171 98.7185C173.159 98.6908 173.143 98.6657 173.121 98.6446C173.1 98.6234 173.075 98.6067 173.048 98.5952C173.02 98.5838 172.99 98.5779 172.96 98.5779H167.495C167.465 98.5779 167.436 98.5838 167.408 98.5952C167.38 98.6067 167.355 98.6234 167.334 98.6446C167.313 98.6657 167.296 98.6908 167.285 98.7185C167.273 98.7461 167.267 98.7757 167.267 98.8056V99.9541H163.852V98.8056C163.852 98.7757 163.846 98.7461 163.834 98.7185C163.823 98.6908 163.806 98.6657 163.785 98.6446C163.764 98.6234 163.739 98.6067 163.711 98.5952C163.683 98.5838 163.654 98.5779 163.624 98.5779H158.159C158.129 98.5779 158.099 98.5838 158.072 98.5952C158.044 98.6067 158.019 98.6234 157.998 98.6446C157.977 98.6657 157.96 98.6908 157.948 98.7185C157.937 98.7461 157.931 98.7757 157.931 98.8056V99.9541H154.515V98.8056C154.515 98.7757 154.509 98.7461 154.498 98.7185C154.486 98.6908 154.47 98.6657 154.449 98.6446C154.427 98.6234 154.402 98.6067 154.375 98.5952C154.347 98.5838 154.317 98.5779 154.288 98.5779H148.822C148.792 98.5779 148.763 98.5838 148.735 98.5952C148.708 98.6067 148.682 98.6234 148.661 98.6446C148.64 98.6657 148.623 98.6908 148.612 98.7185C148.6 98.7461 148.595 98.7757 148.595 98.8056V99.9541H145.179V98.8056C145.179 98.7757 145.173 98.7461 145.161 98.7185C145.15 98.6908 145.133 98.6657 145.112 98.6446C145.091 98.6234 145.066 98.6067 145.038 98.5952C145.011 98.5838 144.981 98.5779 144.951 98.5779H102.14C102.11 98.5779 102.081 98.5838 102.053 98.5952C102.025 98.6067 102 98.6234 101.979 98.6446C101.958 98.6657 101.941 98.6908 101.93 98.7185C101.918 98.7461 101.912 98.7757 101.912 98.8056V99.9541H98.4967V98.8056C98.4967 98.7757 98.4908 98.7461 98.4794 98.7185C98.4679 98.6908 98.4512 98.6657 98.43 98.6446C98.4089 98.6234 98.3838 98.6067 98.3561 98.5952C98.3285 98.5838 98.2989 98.5779 98.269 98.5779H92.8038C92.7739 98.5779 92.7443 98.5838 92.7166 98.5952C92.689 98.6067 92.6639 98.6234 92.6428 98.6446C92.6216 98.6657 92.6048 98.6908 92.5934 98.7185C92.5819 98.7461 92.5761 98.7757 92.5761 98.8056V99.9541H89.1603V98.8056C89.1603 98.7757 89.1544 98.7461 89.143 98.7185C89.1315 98.6908 89.1147 98.6657 89.0936 98.6446C89.0725 98.6234 89.0474 98.6067 89.0197 98.5952C88.9921 98.5838 88.9625 98.5779 88.9326 98.5779H83.4674C83.4375 98.5779 83.4078 98.5838 83.3802 98.5952C83.3526 98.6067 83.3275 98.6234 83.3063 98.6446C83.2852 98.6657 83.2684 98.6908 83.257 98.7185C83.2455 98.7461 83.2396 98.7757 83.2396 98.8056V99.9541H79.8239V98.8056C79.8239 98.7757 79.818 98.7461 79.8065 98.7185C79.7951 98.6908 79.7783 98.6657 79.7572 98.6446C79.736 98.6234 79.7109 98.6067 79.6833 98.5952C79.6557 98.5838 79.6261 98.5779 79.5962 98.5779H74.1309C74.101 98.5779 74.0714 98.5838 74.0438 98.5952C74.0162 98.6067 73.9911 98.6234 73.9699 98.6446C73.9488 98.6657 73.932 98.6908 73.9206 98.7185C73.9091 98.7461 73.9032 98.7757 73.9032 98.8056V99.9541H70.4875V98.8056C70.4875 98.7757 70.4816 98.7461 70.4701 98.7185C70.4587 98.6908 70.4419 98.6657 70.4208 98.6446C70.3996 98.6234 70.3745 98.6067 70.3469 98.5952C70.3193 98.5838 70.2896 98.5779 70.2597 98.5779H64.7945C64.7646 98.5779 64.735 98.5838 64.7074 98.5952C64.6797 98.6067 64.6546 98.6234 64.6335 98.6446C64.6124 98.6657 64.5956 98.6908 64.5841 98.7185C64.5727 98.7461 64.5668 98.7757 64.5668 98.8056V99.9541H61.151V98.8056C61.151 98.7757 61.1451 98.7461 61.1337 98.7185C61.1223 98.6908 61.1055 98.6657 61.0843 98.6446C61.0632 98.6234 61.0381 98.6067 61.0105 98.5952C60.9828 98.5838 60.9532 98.5779 60.9233 98.5779H55.4581C55.4282 98.5779 55.3986 98.5838 55.371 98.5952C55.3433 98.6067 55.3182 98.6234 55.2971 98.6446C55.2759 98.6657 55.2592 98.6908 55.2477 98.7185C55.2363 98.7461 55.2304 98.7757 55.2304 98.8056V99.9541H51.8146V98.8056C51.8146 98.7757 51.8087 98.7461 51.7973 98.7185C51.7858 98.6908 51.7691 98.6657 51.7479 98.6446C51.7268 98.6234 51.7017 98.6067 51.674 98.5952C51.6464 98.5838 51.6168 98.5779 51.5869 98.5779H46.1217C46.0918 98.5779 46.0622 98.5838 46.0345 98.5952C46.0069 98.6067 45.9818 98.6234 45.9607 98.6446C45.9395 98.6657 45.9227 98.6908 45.9113 98.7185C45.8998 98.7461 45.894 98.7757 45.894 98.8056V99.9541H35.419C33.9695 99.9541 32.5794 100.53 31.5545 101.555C30.5295 102.58 29.9537 103.97 29.9537 105.419V107.891C29.9537 109.34 30.5295 110.73 31.5545 111.755C32.5794 112.78 33.9695 113.356 35.419 113.356H217.138C218.587 113.356 219.977 112.78 221.002 111.755C222.027 110.73 222.603 109.34 222.603 107.891V105.419C222.603 103.97 222.027 102.58 221.002 101.555C219.977 100.53 218.587 99.9541 217.138 99.9541Z" fill="#3F3D56"/>
<path d="M245.082 107.749H7.47461V108.474H245.082V107.749Z" fill="#3F3D56"/>
<path d="M196.312 60.833H143.724V30.8943H196.312V60.833ZM144.245 60.3123H195.792V31.415H144.245V60.3123Z" fill="#3F3D56"/>
<path d="M99.988 66.8208H53.1274V37.6631H99.988V66.8208ZM53.6481 66.3001H99.4673V38.1838H53.6481V66.3001Z" fill="#3F3D56"/>
<path d="M75.0202 55.6264L74.9753 55.0442C74.8411 53.8353 75.2441 52.5143 76.3634 51.1712C77.371 49.9844 77.9307 49.1114 77.9307 48.1038C77.9307 46.9621 77.2142 46.2009 75.8037 46.1785C74.997 46.1752 74.2084 46.4173 73.5425 46.8726L73.0051 45.4621C73.7441 44.9246 75.0202 44.5664 76.2067 44.5664C78.7815 44.5664 79.9456 46.1561 79.9456 47.8575C79.9456 49.3801 79.0948 50.4771 78.0202 51.7531C77.0351 52.9173 76.6769 53.9024 76.744 55.0442L76.7664 55.6264L75.0202 55.6264ZM74.5276 58.7609C74.5156 58.5782 74.5415 58.395 74.6039 58.2229C74.6662 58.0508 74.7636 57.8935 74.8898 57.761C75.0161 57.6284 75.1685 57.5235 75.3373 57.4528C75.5062 57.3821 75.6878 57.3472 75.8709 57.3503C76.6545 57.3503 77.1919 57.9323 77.1919 58.7609C77.1993 58.9404 77.1703 59.1196 77.1067 59.2877C77.0431 59.4558 76.9461 59.6092 76.8217 59.7389C76.6973 59.8686 76.5479 59.9717 76.3826 60.0422C76.2173 60.1127 76.0395 60.149 75.8597 60.149C75.68 60.149 75.5022 60.1127 75.3369 60.0422C75.1716 59.9717 75.0222 59.8686 74.8978 59.7389C74.7733 59.6092 74.6764 59.4558 74.6128 59.2877C74.5492 59.1196 74.5202 58.9404 74.5276 58.7609Z" fill="#D0CDE1"/>
<path d="M168.481 49.1178L168.436 48.5357C168.302 47.3268 168.705 46.0058 169.824 44.6626C170.832 43.4759 171.391 42.6028 171.391 41.5953C171.391 40.4535 170.675 39.6923 169.264 39.67C168.458 39.6667 167.669 39.9088 167.003 40.364L166.466 38.9535C167.205 38.4161 168.481 38.0579 169.667 38.0579C172.242 38.0579 173.406 39.6476 173.406 41.3489C173.406 42.8715 172.556 43.9686 171.481 45.2446C170.496 46.4087 170.138 47.3939 170.205 48.5356L170.227 49.1178L168.481 49.1178ZM167.988 52.2523C167.976 52.0696 168.002 51.8865 168.065 51.7144C168.127 51.5423 168.224 51.385 168.351 51.2524C168.477 51.1198 168.629 51.0149 168.798 50.9442C168.967 50.8736 169.149 50.8387 169.332 50.8418C170.115 50.8418 170.653 51.4237 170.653 52.2523C170.66 52.4319 170.631 52.6111 170.567 52.7791C170.504 52.9472 170.407 53.1007 170.282 53.2304C170.158 53.36 170.009 53.4632 169.843 53.5337C169.678 53.6041 169.5 53.6405 169.32 53.6405C169.141 53.6405 168.963 53.6041 168.798 53.5337C168.632 53.4632 168.483 53.36 168.358 53.2304C168.234 53.1007 168.137 52.9472 168.074 52.7791C168.01 52.6111 167.981 52.4319 167.988 52.2523Z" fill="#D0CDE1"/>
<path d="M125.663 90.3734C138.07 90.3734 148.128 80.3155 148.128 67.9084C148.128 55.5013 138.07 45.4434 125.663 45.4434C113.256 45.4434 103.198 55.5013 103.198 67.9084C103.198 80.3155 113.256 90.3734 125.663 90.3734Z" fill="#2F2E41"/>
<path d="M116.986 98.6721L110.27 97.4563L112.449 83.4336L119.164 84.6494L116.986 98.6721Z" fill="#2F2E41"/>
<path d="M132.596 87.0807L125.88 85.865L123.702 97.8972L130.417 99.1129L132.596 87.0807Z" fill="#2F2E41"/>
<path d="M134.906 99.7686C135.139 98.614 132.832 97.1742 129.753 96.5526C126.674 95.9311 123.989 96.3632 123.756 97.5178C123.523 98.6724 125.83 100.112 128.909 100.734C131.988 101.355 134.673 100.923 134.906 99.7686Z" fill="#2F2E41"/>
<path d="M120.918 99.4059C121.073 98.2382 118.674 96.9572 115.56 96.5447C112.446 96.1322 109.797 96.7444 109.642 97.9121C109.487 99.0798 111.886 100.361 115 100.773C118.114 101.186 120.764 100.574 120.918 99.4059Z" fill="#2F2E41"/>
<path d="M127.235 70.0912C131.476 70.0912 134.913 66.6537 134.913 62.4133C134.913 58.1729 131.476 54.7354 127.235 54.7354C122.995 54.7354 119.557 58.1729 119.557 62.4133C119.557 66.6537 122.995 70.0912 127.235 70.0912Z" fill="white"/>
<path d="M130.391 62.2206C131.805 62.2206 132.95 61.0748 132.95 59.6613C132.95 58.2479 131.805 57.1021 130.391 57.1021C128.978 57.1021 127.832 58.2479 127.832 59.6613C127.832 61.0748 128.978 62.2206 130.391 62.2206Z" fill="#3F3D56"/>
<path d="M107.941 43.4689C107.603 35.152 114.771 28.1075 123.951 27.7346C133.131 27.3618 140.847 33.8016 141.185 42.1185C141.522 50.4354 135.141 52.3251 125.961 52.698C116.781 53.0709 108.279 51.7858 107.941 43.4689Z" fill="white"/>
<path d="M147.194 67.2528C153.241 65.8668 157.79 63.2044 157.355 61.3061C156.92 59.4078 151.665 58.9926 145.618 60.3786C139.572 61.7646 135.022 64.427 135.458 66.3253C135.893 68.2235 141.147 68.6388 147.194 67.2528Z" fill="#2F2E41"/>
<path d="M103.096 74.5863C109.143 73.2003 113.692 70.5378 113.257 68.6396C112.821 66.7413 107.567 66.3261 101.52 67.7121C95.4734 69.0981 90.9243 71.7605 91.3594 73.6588C91.7945 75.557 97.0491 75.9723 103.096 74.5863Z" fill="#2F2E41"/>
<path d="M119.493 76.7616C119.373 77.4231 119.384 78.1016 119.527 78.7585C119.669 79.4154 119.94 80.0378 120.323 80.5902C120.706 81.1426 121.194 81.6141 121.759 81.9778C122.325 82.3416 122.956 82.5904 123.617 82.7102C124.279 82.8299 124.957 82.8182 125.614 82.6757C126.271 82.5332 126.894 82.2627 127.446 81.8797C127.998 81.4966 128.47 81.0086 128.834 80.4433C129.197 79.878 129.446 79.2467 129.566 78.5852C130.07 75.8035 127.919 74.8192 125.137 74.3156C122.355 73.812 119.996 73.9799 119.493 76.7616Z" fill="white"/>
<path d="M77.1694 3.41626H40.2311V38.5532H77.1694V3.41626Z" fill="#D0CDE1"/>
<path d="M72.9719 7.61377H44.4286V29.441H72.9719V7.61377Z" fill="white"/>
<path d="M59.9259 32.0161H44.4003V32.8332H59.9259V32.0161Z" fill="#F2F2F2"/>
<path d="M59.926 34.4675H44.4004V35.2847H59.926V34.4675Z" fill="#F2F2F2"/>
<path d="M49.5074 21.8017C51.3126 21.8017 52.776 20.3384 52.776 18.5332C52.776 16.728 51.3126 15.2646 49.5074 15.2646C47.7023 15.2646 46.2389 16.728 46.2389 18.5332C46.2389 20.3384 47.7023 21.8017 49.5074 21.8017Z" fill="#3F3D56"/>
<path d="M58.7002 21.8017C60.5054 21.8017 61.9687 20.3384 61.9687 18.5332C61.9687 16.728 60.5054 15.2646 58.7002 15.2646C56.895 15.2646 55.4316 16.728 55.4316 18.5332C55.4316 20.3384 56.895 21.8017 58.7002 21.8017Z" fill="#837CFB"/>
<path d="M67.8931 21.8017C69.6982 21.8017 71.1616 20.3384 71.1616 18.5332C71.1616 16.728 69.6982 15.2646 67.8931 15.2646C66.0879 15.2646 64.6245 16.728 64.6245 18.5332C64.6245 20.3384 66.0879 21.8017 67.8931 21.8017Z" fill="#E6E6E6"/>
<path d="M58.7002 7.09326C59.6028 7.09326 60.3345 6.36157 60.3345 5.45898C60.3345 4.5564 59.6028 3.82471 58.7002 3.82471C57.7976 3.82471 57.0659 4.5564 57.0659 5.45898C57.0659 6.36157 57.7976 7.09326 58.7002 7.09326Z" fill="#3F3D56"/>
<path d="M94.7389 71.4517H57.8005V106.589H94.7389V71.4517Z" fill="#D0CDE1"/>
<path d="M90.5413 75.6492H61.998V97.4764H90.5413V75.6492Z" fill="white"/>
<path d="M78.2856 79.2363H68.2791V89.2429H78.2856V79.2363Z" fill="#837CFB"/>
<path d="M72.1096 81.7385V93.8893H84.2605V81.7385H72.1096ZM83.7334 93.3623H72.6367V82.2656H83.7334V93.3623Z" fill="#3F3D56"/>
<path d="M77.4953 99.6428H61.9697V100.46H77.4953V99.6428Z" fill="#F2F2F2"/>
<path d="M76.2695 75.1287C77.1721 75.1287 77.9038 74.397 77.9038 73.4944C77.9038 72.5918 77.1721 71.8601 76.2695 71.8601C75.3669 71.8601 74.6353 72.5918 74.6353 73.4944C74.6353 74.397 75.3669 75.1287 76.2695 75.1287Z" fill="#3F3D56"/>
<path d="M190.911 60.9326H153.973V96.0695H190.911V60.9326Z" fill="#D0CDE1"/>
<path d="M186.713 65.1301H158.17V86.9573H186.713V65.1301Z" fill="white"/>
<path d="M175.512 82.2175H169.372V84.0372H175.512V82.2175Z" fill="#3F3D56"/>
<path d="M182.936 68.05H161.948V68.8299H182.936V68.05Z" fill="#3F3D56"/>
<path d="M182.936 70.5195H161.948V71.2994H182.936V70.5195Z" fill="#3F3D56"/>
<path d="M182.936 72.9893H161.948V73.7691H182.936V72.9893Z" fill="#3F3D56"/>
<path d="M182.935 75.4587H161.948V76.2386H182.935V75.4587Z" fill="#3F3D56"/>
<path d="M182.936 77.9282H161.948V78.7081H182.936V77.9282Z" fill="#3F3D56"/>
<path d="M173.667 89.1238H158.142V89.9409H173.667V89.1238Z" fill="#F2F2F2"/>
<path d="M179.796 91.1665H158.142V91.9836H179.796V91.1665Z" fill="#F2F2F2"/>
<path d="M172.442 64.6096C173.344 64.6096 174.076 63.8779 174.076 62.9753C174.076 62.0728 173.344 61.3411 172.442 61.3411C171.539 61.3411 170.807 62.0728 170.807 62.9753C170.807 63.8779 171.539 64.6096 172.442 64.6096Z" fill="#3F3D56"/>
</g>
<defs>
<clipPath id="clip0_28_401">
<rect width="245.082" height="113.356" fill="white"/>
</clipPath>
</defs>
</svg>
