<svg width="318" height="314" viewBox="0 0 318 314" fill="none" xmlns="http://www.w3.org/2000/svg">
<path d="M192.767 164.236C206.621 139.925 233.047 121.259 261.021 123.057C240.386 145.442 228.354 174.386 227.052 204.769C226.593 216.488 227.305 229.571 219.505 238.346C214.652 243.806 207.234 246.451 199.94 247.005C192.645 247.56 185.353 246.245 178.156 244.936L176.41 245.471C175.745 217.514 178.913 188.548 192.767 164.236Z" fill="#F0F0F0"/>
<path d="M261.063 123.642C240.376 133.576 222.737 150.168 211.909 170.403C209.568 174.777 207.575 179.418 206.706 184.325C205.836 189.235 206.443 193.908 208.124 198.571C209.661 202.833 211.728 207.016 212.199 211.577C212.695 216.385 210.922 220.88 207.73 224.447C203.825 228.813 198.58 231.517 193.359 233.985C187.562 236.724 181.497 239.478 177.391 244.591C176.894 245.211 175.959 244.404 176.456 243.786C183.6 234.89 195.828 233.218 204.307 226.052C208.264 222.708 211.234 218.155 211.047 212.819C210.883 208.154 208.756 203.839 207.162 199.536C205.489 195.018 204.655 190.476 205.255 185.659C205.869 180.732 207.684 176.003 209.903 171.588C214.906 161.631 221.754 152.489 229.598 144.587C238.613 135.503 249.12 128.025 260.663 122.476C261.378 122.133 261.773 123.301 261.063 123.642V123.642Z" fill="white"/>
<path d="M215.081 163.64C211.909 161.327 209.666 157.965 208.75 154.153C207.834 150.342 208.307 146.33 210.083 142.834C210.444 142.128 211.561 142.656 211.199 143.363C209.539 146.615 209.1 150.352 209.96 153.9C210.819 157.447 212.922 160.571 215.888 162.707C216.532 163.172 215.721 164.103 215.081 163.64V163.64Z" fill="white"/>
<path d="M207.06 196.512C215.006 195.353 222.223 191.25 227.272 185.019C227.771 184.401 228.706 185.207 228.207 185.824C222.941 192.298 215.422 196.554 207.15 197.741C206.362 197.853 206.275 196.624 207.06 196.512V196.512Z" fill="white"/>
<path d="M239.224 137.02C240.264 138.17 241.574 139.044 243.037 139.564C244.499 140.084 246.068 140.234 247.603 140C248.39 139.877 248.475 141.107 247.694 141.229C245.997 141.48 244.264 141.313 242.647 140.741C241.03 140.17 239.577 139.213 238.416 137.953C238.297 137.843 238.224 137.692 238.212 137.531C238.2 137.369 238.25 137.209 238.352 137.083C238.46 136.96 238.612 136.885 238.775 136.873C238.938 136.861 239.099 136.914 239.224 137.02Z" fill="white"/>
<path d="M316.682 199.749C316.193 199.84 315.704 199.93 315.21 200.03C308.641 201.28 302.185 203.06 295.906 205.353C295.417 205.523 294.925 205.702 294.443 205.885C279.373 211.57 265.492 219.997 253.505 230.737C248.74 235.016 244.307 239.649 240.246 244.598C234.638 251.433 229.103 259.289 221.775 263.746C221.015 264.22 220.227 264.646 219.415 265.022L177.199 247.554C177.123 247.466 177.043 247.388 176.967 247.3L175.249 246.679C175.441 246.41 175.645 246.134 175.837 245.864C175.947 245.707 176.067 245.554 176.177 245.397C176.254 245.293 176.331 245.19 176.394 245.092C176.42 245.058 176.446 245.024 176.467 244.999C176.53 244.901 176.599 244.817 176.659 244.729C177.798 243.184 178.949 241.645 180.114 240.111C180.118 240.101 180.118 240.101 180.131 240.096C189.035 228.43 198.993 217.404 210.312 208.236C210.652 207.96 210.996 207.675 211.356 207.407C216.481 203.303 221.934 199.623 227.66 196.405C230.801 194.653 234.029 193.061 237.331 191.635C245.872 187.965 254.937 185.659 264.196 184.8C282.653 183.09 301.453 187.288 315.609 198.855C315.971 199.151 316.324 199.443 316.682 199.749Z" fill="#F0F0F0"/>
<path d="M316.365 200.244C293.852 195.752 269.755 198.405 248.897 208.058C244.387 210.145 239.995 212.653 236.339 216.049C232.682 219.446 230.346 223.543 228.874 228.275C227.529 232.601 226.654 237.182 224.278 241.107C221.773 245.244 217.644 247.768 212.942 248.7C207.189 249.839 201.369 248.849 195.711 247.683C189.429 246.389 182.925 244.945 176.561 246.562C175.79 246.757 175.53 245.552 176.3 245.357C187.373 242.545 198.145 248.554 209.241 247.925C214.418 247.632 219.538 245.78 222.608 241.407C225.293 237.584 226.199 232.86 227.524 228.468C228.914 223.856 230.99 219.728 234.376 216.242C237.84 212.677 242.143 209.992 246.579 207.799C256.584 202.854 267.569 199.668 278.601 198.069C291.281 196.231 304.184 196.571 316.749 199.073C317.527 199.228 317.137 200.399 316.365 200.244V200.244Z" fill="white"/>
<path d="M255.511 204.563C254.375 200.812 254.613 196.779 256.182 193.186C257.751 189.593 260.549 186.674 264.077 184.949C264.792 184.603 265.366 185.695 264.65 186.042C261.362 187.642 258.755 190.362 257.301 193.71C255.846 197.059 255.64 200.816 256.718 204.303C256.952 205.061 255.743 205.317 255.511 204.563Z" fill="white"/>
<path d="M229.267 225.992C236.311 229.84 244.55 230.898 252.341 228.955C253.113 228.762 253.373 229.967 252.602 230.16C244.49 232.166 235.919 231.048 228.597 227.028C227.9 226.644 228.573 225.61 229.267 225.992V225.992Z" fill="white"/>
<path d="M290.853 197.809C290.99 199.352 291.508 200.837 292.362 202.131C293.216 203.424 294.378 204.486 295.745 205.221C296.447 205.596 295.773 206.629 295.076 206.257C293.569 205.438 292.287 204.264 291.34 202.836C290.394 201.409 289.812 199.772 289.646 198.069C289.616 197.91 289.649 197.745 289.737 197.609C289.825 197.473 289.962 197.376 290.119 197.337C290.279 197.303 290.446 197.334 290.584 197.422C290.721 197.511 290.818 197.65 290.853 197.809V197.809Z" fill="white"/>
<mask id="mask0_212_3" style="mask-type:alpha" maskUnits="userSpaceOnUse" x="0" y="21" width="295" height="293">
<ellipse cx="147.572" cy="167.5" rx="146.954" ry="146.5" fill="#C4C4C4"/>
</mask>
<g mask="url(#mask0_212_3)">
<ellipse cx="147.572" cy="167.5" rx="146.954" ry="146.5" fill="#C9C7FA"/>
<path d="M196.687 165.823C210.541 141.512 236.967 122.845 264.941 124.643C244.306 147.028 232.274 175.973 230.972 206.356C230.513 218.075 231.225 231.157 223.425 239.933C218.572 245.393 211.153 248.037 203.86 248.592C196.565 249.147 189.273 247.832 182.076 246.523L180.33 247.057C179.665 219.101 182.833 190.134 196.687 165.823Z" fill="#F0F0F0"/>
<path d="M264.983 125.229C244.296 135.163 226.657 151.755 215.829 171.989C213.488 176.364 211.495 181.005 210.626 185.912C209.756 190.821 210.363 195.494 212.044 200.157C213.581 204.42 215.647 208.603 216.119 213.164C216.615 217.971 214.842 222.466 211.65 226.034C207.745 230.399 202.5 233.104 197.279 235.571C191.482 238.311 185.417 241.065 181.311 246.178C180.814 246.797 179.879 245.991 180.376 245.373C187.52 236.477 199.748 234.805 208.227 227.639C212.184 224.295 215.154 219.741 214.967 214.406C214.803 209.74 212.675 205.425 211.082 201.123C209.409 196.605 208.575 192.062 209.175 187.246C209.789 182.318 211.604 177.59 213.823 173.175C218.826 163.217 225.674 154.076 233.518 146.173C242.533 137.09 253.04 129.612 264.583 124.062C265.298 123.719 265.693 124.888 264.983 125.229V125.229Z" fill="white"/>
<path d="M219.001 165.227C215.829 162.914 213.585 159.551 212.67 155.74C211.754 151.929 212.227 147.917 214.003 144.421C214.364 143.715 215.481 144.243 215.119 144.95C213.459 148.202 213.02 151.939 213.88 155.486C214.739 159.034 216.842 162.157 219.808 164.294C220.452 164.759 219.641 165.689 219.001 165.227V165.227Z" fill="white"/>
<path d="M210.98 198.098C218.926 196.94 226.143 192.836 231.191 186.606C231.691 185.988 232.626 186.794 232.127 187.411C226.861 193.885 219.342 198.14 211.07 199.328C210.281 199.44 210.195 198.21 210.98 198.098V198.098Z" fill="white"/>
<path d="M243.144 138.606C244.184 139.756 245.494 140.631 246.957 141.151C248.419 141.671 249.988 141.821 251.523 141.586C252.31 141.464 252.395 142.694 251.614 142.816C249.917 143.067 248.184 142.899 246.567 142.328C244.949 141.757 243.497 140.799 242.336 139.539C242.217 139.43 242.144 139.279 242.132 139.117C242.12 138.956 242.17 138.796 242.272 138.67C242.38 138.547 242.532 138.471 242.695 138.459C242.858 138.447 243.019 138.5 243.144 138.606Z" fill="white"/>
<path d="M320.602 201.336C320.112 201.426 319.623 201.517 319.13 201.617C312.561 202.867 306.105 204.647 299.826 206.94C299.337 207.109 298.845 207.289 298.363 207.472C283.293 213.157 269.412 221.584 257.425 232.324C252.66 236.602 248.227 241.236 244.166 246.185C238.558 253.02 233.023 260.876 225.695 265.333C224.935 265.806 224.147 266.232 223.335 266.609L181.119 249.141C181.043 249.053 180.963 248.975 180.886 248.887L179.169 248.266C179.361 247.996 179.565 247.72 179.757 247.451C179.867 247.294 179.987 247.141 180.097 246.984C180.174 246.88 180.251 246.777 180.314 246.679C180.34 246.645 180.366 246.61 180.387 246.585C180.45 246.488 180.519 246.404 180.579 246.316C181.717 244.771 182.869 243.232 184.034 241.698C184.038 241.688 184.038 241.688 184.051 241.682C192.955 230.017 202.912 218.991 214.231 209.823C214.572 209.547 214.916 209.262 215.276 208.994C220.401 204.89 225.854 201.21 231.58 197.992C234.721 196.24 237.949 194.648 241.251 193.221C249.791 189.552 258.857 187.245 268.116 186.386C286.573 184.677 305.373 188.874 319.529 200.442C319.891 200.738 320.244 201.03 320.602 201.336Z" fill="#F0F0F0"/>
<path d="M320.285 201.831C297.772 197.339 273.674 199.992 252.817 209.644C248.307 211.731 243.915 214.24 240.259 217.636C236.602 221.033 234.266 225.129 232.794 229.862C231.448 234.188 230.574 238.769 228.198 242.694C225.693 246.831 221.564 249.355 216.862 250.286C211.109 251.426 205.289 250.436 199.631 249.27C193.349 247.976 186.845 246.532 180.481 248.148C179.71 248.344 179.45 247.139 180.22 246.943C191.293 244.131 202.065 250.14 213.161 249.512C218.338 249.218 223.458 247.367 226.528 242.994C229.213 239.17 230.119 234.447 231.443 230.055C232.834 225.443 234.91 221.315 238.296 217.829C241.76 214.264 246.063 211.579 250.499 209.386C260.504 204.441 271.488 201.254 282.521 199.656C295.201 197.818 308.104 198.157 320.669 200.66C321.447 200.815 321.057 201.985 320.285 201.831V201.831Z" fill="white"/>
<path d="M259.431 206.15C258.295 202.398 258.533 198.366 260.102 194.773C261.671 191.18 264.469 188.261 267.997 186.536C268.712 186.189 269.285 187.281 268.57 187.628C265.281 189.228 262.675 191.948 261.221 195.297C259.766 198.646 259.56 202.403 260.638 205.89C260.872 206.648 259.663 206.904 259.431 206.15Z" fill="white"/>
<path d="M233.187 227.579C240.231 231.426 248.47 232.485 256.261 230.542C257.033 230.349 257.293 231.554 256.522 231.746C248.41 233.753 239.839 232.635 232.517 228.614C231.82 228.231 232.493 227.197 233.187 227.579V227.579Z" fill="white"/>
<path d="M294.773 199.396C294.91 200.939 295.428 202.424 296.282 203.717C297.136 205.011 298.298 206.073 299.665 206.808C300.367 207.182 299.693 208.216 298.996 207.844C297.489 207.025 296.207 205.85 295.26 204.423C294.313 202.996 293.732 201.359 293.566 199.656C293.536 199.496 293.569 199.332 293.657 199.196C293.745 199.06 293.882 198.962 294.039 198.923C294.199 198.89 294.366 198.92 294.504 199.009C294.641 199.097 294.738 199.236 294.773 199.396V199.396Z" fill="white"/>
<path d="M257.052 286.973C250.087 252.343 241.382 240.797 241.382 240.797L238.056 238.145L234.056 234.95L234.076 234.539L233.127 234.208L232.904 234.03L232.539 233.741L232.48 233.806L232.356 233.938L214.258 227.612L191.297 219.592L180.665 205.38C178.933 203.065 176.704 201.194 174.151 199.914C171.599 198.634 168.793 197.979 165.953 198.001L131.997 198.259C127.406 198.294 122.993 200.094 119.627 203.305L97.3082 224.594L62.5311 241.675L62.4724 241.614L62.1072 241.883L56.7338 244.525L56.9555 245.712L53.6297 248.18C53.6297 248.18 44.924 258.923 37.9595 291.145C36.1878 299.344 35.3157 316.932 35.0009 338.605C34.9851 339.701 35.1814 340.79 35.5783 341.807C35.9753 342.825 36.5651 343.751 37.3133 344.533C38.0615 345.314 38.9533 345.934 39.9367 346.358C40.9202 346.781 41.9757 347 43.042 347H228.794V347H251.978C253.043 346.999 254.098 346.781 255.081 346.358C256.064 345.935 256.955 345.315 257.703 344.535C258.451 343.755 259.041 342.83 259.439 341.813C259.836 340.797 260.034 339.709 260.019 338.613C259.712 315.03 258.84 295.864 257.052 286.973Z" fill="#3F3D56"/>
<path d="M150.559 197.311C172.95 197.311 191.102 179.186 191.102 156.827C191.102 134.469 172.95 116.343 150.559 116.343C128.167 116.343 110.015 134.469 110.015 156.827C110.015 179.186 128.167 197.311 150.559 197.311Z" fill="#9E616A"/>
<path d="M142.363 163.553C142.19 163.172 142.017 162.79 141.845 162.406C141.911 162.408 141.977 162.418 142.043 162.42L142.363 163.553Z" fill="#2F2E41"/>
<path d="M108.888 118.184C110.938 116.551 113.335 115.048 115.957 115.132C118.578 115.217 121.237 117.581 120.694 120.144C125.509 111.63 133.174 105.082 142.343 101.649C151.512 98.2155 161.599 98.1169 170.833 101.37C177.35 103.666 183.74 108.258 185.236 114.994C185.621 116.723 185.703 118.619 186.784 120.023C188.147 121.793 190.756 122.194 192.903 121.571C192.925 121.565 192.946 121.558 192.968 121.552C193.331 121.428 193.722 121.416 194.092 121.517C194.462 121.618 194.793 121.827 195.042 122.118C195.291 122.409 195.448 122.768 195.49 123.148C195.533 123.529 195.461 123.913 195.282 124.252L193.439 127.686C195.763 128.203 198.178 128.152 200.478 127.536C200.86 127.436 201.263 127.457 201.633 127.595C202.003 127.733 202.322 127.982 202.544 128.308C202.767 128.633 202.883 129.02 202.877 129.414C202.871 129.809 202.743 130.192 202.51 130.51C196.431 138.845 186.274 144.227 175.909 144.163C168.543 144.119 161.1 141.583 153.931 143.275C151.157 143.929 148.566 145.196 146.346 146.98C144.127 148.765 142.335 151.024 141.104 153.59C139.873 156.157 139.232 158.966 139.23 161.812C139.228 164.657 139.863 167.467 141.09 170.036C138.888 167.63 134.63 168.2 132.377 170.558C130.125 172.917 129.541 176.437 129.768 179.689C130.115 184.662 132.067 189.348 134.124 193.908C116.877 193.366 100.564 181.285 95.0736 164.946C89.5598 148.538 95.3385 128.977 108.888 118.184Z" fill="#2F2E41"/>
<path opacity="0.2" d="M83.9053 246.627L95.2768 308.407L102.1 309L83.9053 246.627Z" fill="black"/>
<path opacity="0.2" d="M209.165 241.968L197.794 308.362L190.971 309L209.165 241.968Z" fill="black"/>
</g>
<path d="M112.854 56.6158C110.674 57.5249 108.399 56.5286 107.444 54.247C106.476 51.9305 107.381 49.5789 109.596 48.6553C111.811 47.7315 114.046 48.7302 115.03 51.0841C116 53.4027 115.105 55.6773 112.854 56.6158ZM108.677 44.0956L106.944 44.8185C106.511 44.9969 106.026 45.0065 105.587 44.8454C105.147 44.6843 104.783 44.3643 104.569 43.9485L104.483 43.7811C102.617 40.4219 102.404 36.3393 103.851 31.6531C105.192 27.4493 105.749 24.4928 104.629 21.8144C103.334 18.7177 100.569 17.7476 97.0425 19.1528C95.6748 19.7231 95.2396 19.714 94.1633 20.7802C93.9291 21.0149 93.6501 21.2002 93.3427 21.3249C93.0353 21.4496 92.706 21.5112 92.3742 21.5061C92.0535 21.5023 91.7369 21.4341 91.4431 21.3055C91.1494 21.1769 90.8846 20.9906 90.6646 20.7576C90.2407 20.3086 90.0032 19.7157 90 19.0986C89.9969 18.4816 90.2284 17.8863 90.6478 17.4331C92.4569 15.5421 94.6389 14.0461 97.0561 13.0394C104.633 9.88029 108.447 14.5443 110.192 18.7181C111.9 22.8006 110.939 26.5885 109.396 31.4941C108.103 35.5704 108.178 38.5909 109.647 41.5942C109.753 41.8212 109.812 42.0674 109.821 42.3177C109.829 42.5681 109.787 42.8176 109.696 43.0513C109.606 43.2849 109.469 43.4978 109.294 43.6773C109.119 43.8568 108.909 43.999 108.677 44.0956L108.677 44.0956Z" fill="#6C63FF"/>
<path d="M124.675 50.8101C122.312 50.822 120.587 49.0356 120.572 46.5625C120.557 44.0517 122.287 42.2207 124.688 42.2086C127.088 42.1965 128.775 43.9698 128.79 46.5211C128.806 49.0342 127.113 50.7979 124.675 50.8101ZM125.572 37.6422L123.693 37.6516C123.225 37.652 122.773 37.4768 122.428 37.1605C122.082 36.8443 121.868 36.4102 121.827 35.944L121.812 35.7565C121.363 31.9404 122.718 28.0832 125.838 24.2992C128.677 20.9208 130.316 18.3981 130.298 15.495C130.278 12.1384 128.089 10.1899 124.293 10.1489C122.811 10.1564 122.412 9.9825 121.012 10.5594C120.706 10.6875 120.377 10.7527 120.046 10.7512C119.714 10.7497 119.386 10.6815 119.081 10.5507C118.786 10.4252 118.519 10.2418 118.296 10.0111C118.073 9.78053 117.899 9.50751 117.784 9.20836C117.563 8.63192 117.569 7.99325 117.8 7.42133C118.032 6.84941 118.472 6.38686 119.033 6.1271C121.425 5.06589 124.012 4.51178 126.63 4.49972C134.839 4.45836 136.594 10.2222 136.621 14.7462C136.648 19.1712 134.32 22.3095 131.027 26.2602C128.282 29.5388 127.203 32.3611 127.42 35.6973C127.431 35.9476 127.392 36.1977 127.305 36.4325C127.218 36.6673 127.084 36.8819 126.911 37.0636C126.738 37.2452 126.531 37.3901 126.301 37.4895C126.071 37.589 125.823 37.6409 125.572 37.6422L125.572 37.6422Z" fill="#6C63FF"/>
</svg>
