<svg width="743" height="279" viewBox="0 0 743 279" fill="none" xmlns="http://www.w3.org/2000/svg">
<path d="M21.3205 246.275C23.9305 247.194 26.7329 247.425 29.4576 246.944C32.1823 246.463 34.7374 245.287 36.8769 243.53C42.3255 238.949 44.0342 231.403 45.4237 224.415L49.5351 203.743L40.9277 209.681C34.7374 213.95 28.408 218.357 24.1223 224.541C19.8365 230.726 17.9668 239.168 21.4092 245.86" fill="#E6E6E6"/>
<path d="M22.6496 272.741C21.5662 264.834 20.4516 256.825 21.2133 248.834C21.8884 241.736 24.0499 234.806 28.4506 229.12C30.7864 226.109 33.6287 223.529 36.8497 221.496C37.6894 220.965 38.4624 222.298 37.6263 222.826C32.053 226.355 27.7422 231.565 25.3154 237.706C22.6352 244.534 22.2049 251.979 22.6665 259.233C22.9456 263.62 23.5385 267.978 24.1341 272.33C24.1811 272.527 24.1517 272.735 24.0519 272.911C23.9521 273.087 23.7893 273.218 23.5965 273.279C23.3997 273.332 23.19 273.305 23.0128 273.204C22.8357 273.103 22.7053 272.936 22.6501 272.74L22.6496 272.741Z" fill="#F2F2F2"/>
<path d="M30.4475 260.054C31.5667 261.759 33.1054 263.146 34.9152 264.082C36.725 265.018 38.745 265.471 40.7805 265.398C46.0126 265.149 50.3728 261.493 54.2974 258.02L65.9082 247.751L58.2241 247.382C52.698 247.117 47.0293 246.868 41.7659 248.578C36.5025 250.287 31.6484 254.393 30.6861 259.851" fill="#E6E6E6"/>
<path d="M19.5872 277.286C24.803 268.041 30.8522 257.767 41.6623 254.483C44.6677 253.573 47.8191 253.247 50.9467 253.522C51.9326 253.608 51.6864 255.13 50.7026 255.045C45.4597 254.609 40.227 255.996 35.8854 258.972C31.8039 261.938 28.3437 265.679 25.7011 269.981C24.0145 272.554 22.5039 275.236 20.9932 277.914C20.5105 278.77 19.0989 278.152 19.5872 277.286Z" fill="#F2F2F2"/>
<path d="M498.412 234.191C502.006 235.457 505.865 235.774 509.617 235.112C513.369 234.45 516.888 232.831 519.834 230.411C527.337 224.102 529.69 213.711 531.603 204.088L537.265 175.622L525.412 183.798C516.888 189.677 508.172 195.746 502.27 204.262C496.368 212.778 493.793 224.404 498.534 233.619" fill="#E6E6E6"/>
<path d="M500.242 270.636C498.75 259.748 497.215 248.719 498.264 237.714C499.194 227.941 502.17 218.396 508.23 210.567C511.447 206.42 515.361 202.867 519.796 200.068C520.953 199.337 522.017 201.172 520.866 201.9C513.191 206.759 507.255 213.934 503.913 222.39C500.222 231.794 499.63 242.045 500.265 252.034C500.65 258.075 501.466 264.076 502.286 270.071C502.351 270.342 502.31 270.627 502.173 270.87C502.036 271.112 501.811 271.293 501.546 271.376C501.275 271.449 500.986 271.412 500.742 271.273C500.498 271.135 500.319 270.905 500.243 270.634L500.242 270.636Z" fill="#F2F2F2"/>
<path d="M510.98 253.165C512.521 255.512 514.64 257.423 517.132 258.712C519.625 260.001 522.406 260.625 525.209 260.524C532.414 260.182 538.418 255.146 543.823 250.364L559.812 236.223L549.23 235.715C541.62 235.35 533.814 235.008 526.566 237.361C519.318 239.715 512.634 245.37 511.309 252.885" fill="#E6E6E6"/>
<path d="M496.025 276.895C503.207 264.164 511.537 250.015 526.424 245.493C530.562 244.24 534.902 243.791 539.209 244.17C540.566 244.288 540.227 246.384 538.873 246.267C531.653 245.667 524.447 247.576 518.468 251.675C512.715 255.598 508.235 261.052 504.444 266.835C502.122 270.378 500.041 274.071 497.961 277.759C497.296 278.938 495.352 278.087 496.025 276.895Z" fill="#F2F2F2"/>
<path d="M431.095 42.6359C430.338 42.3054 429.728 41.7075 429.382 40.956C429.036 40.2044 428.978 39.3517 429.219 38.5601C429.258 38.4387 429.283 38.3132 429.292 38.1861V38.1861C429.314 37.8234 429.219 37.4633 429.021 37.159C428.823 36.8547 428.532 36.6225 428.192 36.4968C427.851 36.371 427.48 36.3584 427.132 36.4608C426.784 36.5632 426.478 36.7752 426.259 37.0653V37.0653C426.184 37.1682 426.122 37.2797 426.073 37.3973C425.743 38.1561 425.146 38.7669 424.396 39.1134C423.645 39.4599 422.794 39.5179 422.004 39.2765C421.883 39.2374 421.758 39.2128 421.631 39.2031V39.2031C421.269 39.1811 420.909 39.2764 420.605 39.475C420.302 39.6736 420.07 39.9649 419.944 40.3058C419.819 40.6467 419.806 41.019 419.908 41.3676C420.011 41.7163 420.222 42.0226 420.512 42.2413C420.615 42.3166 420.726 42.3794 420.843 42.4285C421.601 42.7589 422.21 43.3569 422.556 44.1084C422.902 44.86 422.96 45.7127 422.719 46.5043C422.68 46.6256 422.656 46.7512 422.646 46.8783V46.8783C422.624 47.241 422.719 47.6011 422.917 47.9054C423.116 48.2096 423.406 48.4418 423.747 48.5676C424.087 48.6933 424.459 48.7059 424.807 48.6035C425.155 48.5011 425.46 48.2891 425.679 47.999V47.999C425.754 47.8961 425.817 47.7846 425.866 47.667C426.195 46.9082 426.792 46.2975 427.543 45.951C428.293 45.6045 429.144 45.5464 429.934 45.7879C430.055 45.8269 430.181 45.8515 430.308 45.8612V45.8612C430.67 45.8833 431.029 45.788 431.333 45.5894C431.637 45.3908 431.868 45.0994 431.994 44.7586C432.119 44.4177 432.132 44.0453 432.03 43.6967C431.928 43.3481 431.716 43.0417 431.426 42.823V42.823C431.324 42.7478 431.212 42.685 431.095 42.6359Z" fill="#CBCBCB"/>
<path d="M495.226 192.231C494.468 191.901 493.859 191.303 493.513 190.551C493.167 189.8 493.109 188.947 493.35 188.155C493.389 188.034 493.413 187.909 493.423 187.781V187.781C493.445 187.419 493.35 187.059 493.152 186.754C492.953 186.45 492.663 186.218 492.322 186.092C491.982 185.966 491.61 185.954 491.262 186.056C490.914 186.159 490.608 186.371 490.39 186.661V186.661C490.315 186.764 490.252 186.875 490.203 186.993C489.873 187.751 489.277 188.362 488.526 188.709C487.776 189.055 486.925 189.113 486.135 188.872C486.014 188.833 485.888 188.808 485.761 188.799V188.799C485.399 188.776 485.04 188.872 484.736 189.07C484.432 189.269 484.201 189.56 484.075 189.901C483.949 190.242 483.937 190.614 484.039 190.963C484.141 191.312 484.353 191.618 484.643 191.837C484.745 191.912 484.857 191.975 484.974 192.024C485.731 192.354 486.341 192.952 486.687 193.704C487.033 194.455 487.091 195.308 486.85 196.1C486.811 196.221 486.786 196.347 486.777 196.474C486.755 196.836 486.85 197.196 487.048 197.501C487.246 197.805 487.537 198.037 487.877 198.163C488.218 198.289 488.589 198.301 488.937 198.199C489.285 198.097 489.591 197.885 489.809 197.594C489.885 197.491 489.947 197.38 489.996 197.262C490.326 196.504 490.923 195.893 491.673 195.546C492.424 195.2 493.275 195.142 494.065 195.383C494.186 195.422 494.311 195.447 494.438 195.457V195.457C494.8 195.479 495.16 195.383 495.464 195.185C495.767 194.986 495.999 194.695 496.125 194.354C496.25 194.013 496.263 193.641 496.161 193.292C496.058 192.943 495.847 192.637 495.557 192.418V192.418C495.454 192.343 495.343 192.28 495.226 192.231V192.231Z" fill="#F1F1F1"/>
<path d="M158.998 105.044C158.24 104.713 157.63 104.115 157.285 103.364C156.939 102.612 156.881 101.76 157.122 100.968C157.161 100.847 157.185 100.721 157.195 100.594V100.594C157.217 100.231 157.122 99.8712 156.924 99.5669C156.725 99.2626 156.434 99.0304 156.094 98.9047C155.754 98.7789 155.382 98.7663 155.034 98.8687C154.686 98.9711 154.38 99.1831 154.162 99.4732V99.4732C154.087 99.5761 154.024 99.6876 153.975 99.8052C153.645 100.564 153.049 101.175 152.298 101.521C151.548 101.868 150.697 101.926 149.907 101.684C149.785 101.645 149.66 101.621 149.533 101.611V101.611C149.171 101.589 148.812 101.684 148.508 101.883C148.204 102.082 147.972 102.373 147.847 102.714C147.721 103.055 147.709 103.427 147.811 103.776C147.913 104.124 148.125 104.431 148.414 104.649C148.517 104.724 148.628 104.787 148.746 104.836C149.503 105.167 150.113 105.765 150.459 106.516C150.805 107.268 150.863 108.121 150.622 108.912C150.583 109.034 150.558 109.159 150.548 109.286V109.286C150.526 109.649 150.622 110.009 150.82 110.313C151.018 110.618 151.309 110.85 151.649 110.975C151.99 111.101 152.361 111.114 152.709 111.011C153.057 110.909 153.363 110.697 153.581 110.407V110.407C153.656 110.304 153.719 110.193 153.768 110.075C154.098 109.316 154.695 108.705 155.445 108.359C156.195 108.012 157.047 107.954 157.837 108.196C157.958 108.235 158.083 108.259 158.21 108.269V108.269C158.572 108.291 158.932 108.196 159.235 107.997C159.539 107.799 159.771 107.507 159.897 107.166C160.022 106.826 160.035 106.453 159.932 106.105C159.83 105.756 159.619 105.45 159.329 105.231V105.231C159.226 105.156 159.115 105.093 158.998 105.044V105.044Z" fill="#F1F1F1"/>
<path d="M299.265 51.3947C302.301 51.3947 304.762 48.9294 304.762 45.8882C304.762 42.847 302.301 40.3816 299.265 40.3816C296.229 40.3816 293.768 42.847 293.768 45.8882C293.768 48.9294 296.229 51.3947 299.265 51.3947Z" fill="#F1F1F1"/>
<path d="M592.434 36.7105C595.47 36.7105 597.931 34.2452 597.931 31.204C597.931 28.1628 595.47 25.6974 592.434 25.6974C589.398 25.6974 586.937 28.1628 586.937 31.204C586.937 34.2452 589.398 36.7105 592.434 36.7105Z" fill="#837CFB"/>
<path d="M165.506 11.0132C168.542 11.0132 171.003 8.54778 171.003 5.50658C171.003 2.46538 168.542 0 165.506 0C162.471 0 160.01 2.46538 160.01 5.50658C160.01 8.54778 162.471 11.0132 165.506 11.0132Z" fill="#CBCBCB"/>
<path d="M144.367 261.279C166.158 261.279 183.824 243.582 183.824 221.753C183.824 199.924 166.158 182.227 144.367 182.227C122.576 182.227 104.911 199.924 104.911 221.753C104.911 243.582 122.576 261.279 144.367 261.279Z" fill="#2F2E41"/>
<path d="M138.374 252.773H126.387V274.287H138.374V252.773Z" fill="#2F2E41"/>
<path d="M162.347 252.773H150.361V274.287H162.347V252.773Z" fill="#2F2E41"/>
<path d="M136.376 278.29C141.893 278.29 146.365 276.61 146.365 274.537C146.365 272.465 141.893 270.785 136.376 270.785C130.859 270.785 126.387 272.465 126.387 274.537C126.387 276.61 130.859 278.29 136.376 278.29Z" fill="#2F2E41"/>
<path d="M160.35 277.789C165.866 277.789 170.339 276.109 170.339 274.037C170.339 271.965 165.866 270.284 160.35 270.284C154.833 270.284 150.361 271.965 150.361 274.037C150.361 276.109 154.833 277.789 160.35 277.789Z" fill="#2F2E41"/>
<path d="M186.885 204.481C195.43 195.915 200.181 186.792 197.497 184.104C194.812 181.417 185.709 186.183 177.164 194.75C168.619 203.316 163.868 212.439 166.553 215.127C169.237 217.814 178.341 213.048 186.885 204.481Z" fill="#2F2E41"/>
<path d="M112.564 217.88C115.249 215.193 110.498 206.07 101.953 197.503C93.4082 188.937 84.3049 184.171 81.6203 186.858C78.9357 189.545 83.6865 198.668 92.2314 207.235C100.776 215.801 109.88 220.567 112.564 217.88Z" fill="#2F2E41"/>
<path d="M142.707 229.66C150.155 229.66 156.192 223.612 156.192 216.152C156.192 208.691 150.155 202.643 142.707 202.643C135.26 202.643 129.222 208.691 129.222 216.152C129.222 223.612 135.26 229.66 142.707 229.66Z" fill="white"/>
<path d="M142.707 220.655C145.19 220.655 147.202 218.639 147.202 216.152C147.202 213.665 145.19 211.649 142.707 211.649C140.225 211.649 138.212 213.665 138.212 216.152C138.212 218.639 140.225 220.655 142.707 220.655Z" fill="#3F3D56"/>
<path d="M153.412 241.136C153.829 243.428 153.319 245.792 151.996 247.708C150.672 249.624 148.643 250.935 146.355 251.352C144.066 251.77 141.706 251.259 139.794 249.933C137.881 248.607 136.573 246.575 136.156 244.282V244.282L136.153 244.265C135.29 239.491 138.975 237.802 143.741 236.937C148.507 236.073 152.549 236.361 153.412 241.136Z" fill="white"/>
<path d="M183.057 263.236C182.168 263.237 181.317 263.591 180.689 264.22C180.061 264.849 179.708 265.702 179.707 266.592V273.601C179.708 274.491 180.061 275.344 180.689 275.973C181.317 276.602 182.168 276.956 183.057 276.957H236.954C237.842 276.956 238.693 276.602 239.321 275.973C239.949 275.344 240.302 274.491 240.303 273.601V266.592C240.302 265.702 239.949 264.849 239.321 264.22C238.693 263.591 237.842 263.237 236.954 263.236H183.057Z" fill="#E5E5E5"/>
<path d="M214.052 258.568C213.718 258.375 213.322 258.323 212.95 258.423C212.577 258.523 212.26 258.766 212.067 259.101L210.065 262.576L208.102 258.69C207.928 258.346 207.624 258.085 207.258 257.964C206.892 257.844 206.494 257.874 206.15 258.049C205.806 258.223 205.546 258.527 205.425 258.893C205.305 259.26 205.336 259.66 205.51 260.004L207.037 263.028H206.477V277.164H213.948V263.028H213.159L214.584 260.556C214.776 260.222 214.828 259.824 214.729 259.452C214.629 259.079 214.385 258.761 214.052 258.568V258.568Z" fill="#837CFB"/>
<path d="M143.351 195.828C136.341 195.821 129.371 194.754 122.678 192.664C122.213 192.514 121.808 192.22 121.519 191.825C121.231 191.429 121.075 190.953 121.073 190.464V174.375C121.074 173.767 121.315 173.184 121.745 172.753C122.174 172.323 122.756 172.081 123.363 172.081H163.674C164.281 172.081 164.864 172.323 165.293 172.753C165.722 173.184 165.964 173.767 165.965 174.375V190.454C165.965 190.948 165.806 191.428 165.513 191.825C165.22 192.222 164.806 192.513 164.335 192.656C157.533 194.738 150.463 195.807 143.351 195.828V195.828Z" fill="#837CFB"/>
<path opacity="0.2" d="M165.506 174.375V177.064L143.693 184.727C143.285 184.868 142.841 184.862 142.438 184.709L121.531 176.844V174.375C121.533 173.889 121.726 173.423 122.069 173.079C122.413 172.735 122.878 172.541 123.363 172.539H163.674C164.16 172.541 164.625 172.735 164.968 173.079C165.312 173.423 165.505 173.889 165.506 174.375Z" fill="black"/>
<path d="M143.082 181.618C142.808 181.618 142.535 181.568 142.277 181.472L111.036 169.72C110.594 169.554 110.214 169.255 109.948 168.865C109.683 168.474 109.544 168.011 109.551 167.538C109.558 167.066 109.71 166.607 109.987 166.224C110.265 165.842 110.653 165.554 111.099 165.401L140.495 155.327C140.969 155.166 141.484 155.164 141.96 155.321L174.768 166.276C175.221 166.428 175.615 166.717 175.896 167.104C176.177 167.492 176.33 167.957 176.334 168.435C176.337 168.914 176.191 169.382 175.917 169.773C175.642 170.165 175.252 170.46 174.801 170.618L143.84 181.489C143.596 181.574 143.34 181.618 143.082 181.618V181.618Z" fill="#837CFB"/>
<path d="M114.66 180.799H113.744V167.492H141.687V168.41H114.66V180.799Z" fill="#3F3D56"/>
<path d="M114.202 183.553C115.214 183.553 116.034 182.731 116.034 181.717C116.034 180.703 115.214 179.882 114.202 179.882C113.19 179.882 112.37 180.703 112.37 181.717C112.37 182.731 113.19 183.553 114.202 183.553Z" fill="#3F3D56"/>
<path d="M372.489 261.279C394.28 261.279 411.946 243.582 411.946 221.753C411.946 199.924 394.28 182.227 372.489 182.227C350.698 182.227 333.033 199.924 333.033 221.753C333.033 243.582 350.698 261.279 372.489 261.279Z" fill="#2F2E41"/>
<path d="M366.496 252.773H354.509V274.287H366.496V252.773Z" fill="#2F2E41"/>
<path d="M390.469 252.773H378.483V274.287H390.469V252.773Z" fill="#2F2E41"/>
<path d="M364.498 278.29C370.015 278.29 374.487 276.61 374.487 274.537C374.487 272.465 370.015 270.785 364.498 270.785C358.981 270.785 354.509 272.465 354.509 274.537C354.509 276.61 358.981 278.29 364.498 278.29Z" fill="#2F2E41"/>
<path d="M388.472 277.789C393.988 277.789 398.461 276.109 398.461 274.037C398.461 271.965 393.988 270.284 388.472 270.284C382.955 270.284 378.483 271.965 378.483 274.037C378.483 276.109 382.955 277.789 388.472 277.789Z" fill="#2F2E41"/>
<path d="M415.007 204.481C423.552 195.915 428.303 186.792 425.619 184.104C422.934 181.417 413.831 186.183 405.286 194.75C396.741 203.316 391.99 212.439 394.675 215.127C397.359 217.814 406.463 213.048 415.007 204.481Z" fill="#2F2E41"/>
<path d="M337.272 241.17C344.167 231.223 347.229 221.401 344.112 219.233C340.995 217.064 332.878 223.37 325.983 233.318C319.088 243.265 316.026 253.087 319.143 255.255C322.26 257.424 330.377 251.117 337.272 241.17Z" fill="#2F2E41"/>
<path d="M370.829 229.66C378.277 229.66 384.314 223.612 384.314 216.152C384.314 208.691 378.277 202.643 370.829 202.643C363.382 202.643 357.344 208.691 357.344 216.152C357.344 223.612 363.382 229.66 370.829 229.66Z" fill="white"/>
<path d="M375.41 216.066C377.893 216.066 379.905 214.05 379.905 211.563C379.905 209.076 377.893 207.06 375.41 207.06C372.928 207.06 370.915 209.076 370.915 211.563C370.915 214.05 372.928 216.066 375.41 216.066Z" fill="#3F3D56"/>
<path d="M386.997 241.136C388.32 245.909 383.501 250.483 376.234 251.352C368.967 252.221 362.004 249.056 360.681 244.282L360.676 244.265C359.361 239.491 364.98 237.802 372.248 236.937C379.517 236.073 385.681 236.361 386.997 241.136Z" fill="white"/>
<path d="M358.684 198.491C352.177 201.104 345.313 202.719 338.325 203.281C337.838 203.315 337.352 203.195 336.937 202.936C336.523 202.677 336.2 202.293 336.016 201.84L330.025 186.913C329.799 186.348 329.806 185.717 330.044 185.157C330.282 184.597 330.732 184.155 331.295 183.928L368.696 168.863C369.26 168.637 369.89 168.643 370.448 168.882C371.007 169.121 371.448 169.572 371.675 170.136L377.663 185.054C377.847 185.512 377.88 186.017 377.755 186.495C377.63 186.972 377.356 187.397 376.972 187.706C371.436 192.18 365.274 195.813 358.684 198.491V198.491Z" fill="#837CFB"/>
<path opacity="0.2" d="M371.25 170.307L372.252 172.802L354.867 188.064C354.541 188.347 354.127 188.507 353.695 188.516L331.369 189.032L330.45 186.741C330.27 186.29 330.276 185.785 330.466 185.337C330.657 184.89 331.016 184.536 331.466 184.354L368.867 169.289C369.318 169.108 369.822 169.114 370.268 169.305C370.715 169.496 371.068 169.856 371.25 170.307V170.307Z" fill="black"/>
<path d="M353.142 185.407C352.887 185.51 352.616 185.566 352.341 185.573L318.979 186.345C318.507 186.356 318.043 186.221 317.651 185.958C317.259 185.695 316.958 185.317 316.788 184.876C316.619 184.434 316.589 183.952 316.704 183.493C316.819 183.035 317.072 182.623 317.429 182.314L340.951 161.982C341.331 161.655 341.808 161.461 342.308 161.428L376.827 159.332C377.304 159.303 377.778 159.424 378.182 159.678C378.587 159.933 378.902 160.307 379.084 160.75C379.265 161.192 379.304 161.681 379.195 162.147C379.086 162.613 378.834 163.033 378.475 163.348L353.797 185.005C353.603 185.175 353.382 185.311 353.142 185.407V185.407Z" fill="#837CFB"/>
<path d="M326.467 195.27L325.617 195.612L320.662 183.265L346.587 172.822L346.929 173.674L321.853 183.775L326.467 195.27Z" fill="#3F3D56"/>
<path d="M326.384 198.128C327.396 198.128 328.216 197.306 328.216 196.292C328.216 195.279 327.396 194.457 326.384 194.457C325.372 194.457 324.552 195.279 324.552 196.292C324.552 197.306 325.372 198.128 326.384 198.128Z" fill="#3F3D56"/>
<path d="M522.7 128.367C516.752 124.649 511.398 120.053 506.819 114.735C506.504 114.361 506.315 113.897 506.278 113.409C506.242 112.921 506.361 112.434 506.618 112.017L515.106 98.3595C515.428 97.8435 515.941 97.4764 516.532 97.3386C517.123 97.2008 517.745 97.3036 518.261 97.6245L552.481 118.968C552.996 119.29 553.363 119.804 553.5 120.396C553.638 120.989 553.535 121.612 553.215 122.128L544.731 135.778C544.471 136.197 544.083 136.521 543.625 136.703C543.166 136.884 542.662 136.913 542.186 136.785C535.314 134.951 528.748 132.114 522.7 128.367V128.367Z" fill="#837CFB"/>
<path opacity="0.2" d="M552.826 121.886L551.407 124.169L528.846 119.124C528.426 119.028 528.052 118.787 527.79 118.444L514.192 100.698L515.495 98.6021C515.753 98.1899 516.163 97.8967 516.636 97.7866C517.109 97.6764 517.606 97.7582 518.019 98.014L552.239 119.357C552.65 119.616 552.943 120.027 553.053 120.5C553.163 120.974 553.081 121.472 552.826 121.886V121.886Z" fill="black"/>
<path d="M529.969 116.161C529.735 116.016 529.53 115.83 529.362 115.611L509.041 89.0936C508.754 88.7186 508.589 88.2639 508.57 87.7917C508.55 87.3194 508.677 86.8526 508.932 86.455C509.187 86.0575 509.559 85.7487 509.996 85.5707C510.433 85.3928 510.915 85.3544 511.374 85.4609L541.643 92.473C542.131 92.5877 542.569 92.8582 542.891 93.2436L564.961 119.914C565.266 120.283 565.448 120.737 565.482 121.215C565.516 121.692 565.4 122.168 565.151 122.576C564.902 122.984 564.531 123.304 564.091 123.491C563.652 123.678 563.164 123.722 562.698 123.618L530.68 116.453C530.428 116.397 530.188 116.298 529.969 116.161Z" fill="#837CFB"/>
<path d="M506.273 100.418L505.495 99.9325L512.516 88.6357L536.237 103.431L535.752 104.209L512.809 89.8995L506.273 100.418Z" fill="#3F3D56"/>
<path d="M505.399 102.79C506.411 102.79 507.232 101.968 507.232 100.954C507.232 99.9405 506.411 99.1187 505.399 99.1187C504.387 99.1187 503.567 99.9405 503.567 100.954C503.567 101.968 504.387 102.79 505.399 102.79Z" fill="#3F3D56"/>
<path d="M618.154 216.308C639.945 216.308 657.61 198.612 657.61 176.783C657.61 154.953 639.945 137.257 618.154 137.257C596.363 137.257 578.697 154.953 578.697 176.783C578.697 198.612 596.363 216.308 618.154 216.308Z" fill="#2F2E41"/>
<path d="M645.507 197.277L635.279 203.539L646.478 221.896L656.706 215.634L645.507 197.277Z" fill="#2F2E41"/>
<path d="M625.051 209.801L614.823 216.062L626.023 234.42L636.25 228.158L625.051 209.801Z" fill="#2F2E41"/>
<path d="M650.267 224.268C654.974 221.386 657.915 217.616 656.836 215.848C655.758 214.079 651.067 214.982 646.36 217.864C641.653 220.746 638.711 224.516 639.79 226.284C640.869 228.052 645.559 227.15 650.267 224.268Z" fill="#2F2E41"/>
<path d="M629.55 236.364C634.258 233.482 637.199 229.713 636.12 227.944C635.041 226.176 630.351 227.079 625.644 229.961C620.936 232.843 617.995 236.612 619.074 238.381C620.153 240.149 624.843 239.246 629.55 236.364Z" fill="#2F2E41"/>
<path d="M595.968 170.156C598.653 167.469 593.902 158.346 585.357 149.78C576.812 141.213 567.709 136.447 565.024 139.134C562.34 141.821 567.091 150.944 575.636 159.511C584.18 168.077 593.284 172.844 595.968 170.156Z" fill="#2F2E41"/>
<path d="M671.5 210.285C674.617 208.116 671.555 198.295 664.66 188.347C657.765 178.4 649.648 172.094 646.531 174.262C643.414 176.43 646.476 186.252 653.371 196.2C660.266 206.147 668.383 212.453 671.5 210.285Z" fill="#2F2E41"/>
<path d="M606.071 179.184C613.519 179.184 619.556 173.135 619.556 165.675C619.556 158.214 613.519 152.166 606.071 152.166C598.624 152.166 592.586 158.214 592.586 165.675C592.586 173.135 598.624 179.184 606.071 179.184Z" fill="white"/>
<path d="M601.491 165.589C603.973 165.589 605.986 163.573 605.986 161.086C605.986 158.599 603.973 156.583 601.491 156.583C599.008 156.583 596.996 158.599 596.996 161.086C596.996 163.573 599.008 165.589 601.491 165.589Z" fill="#3F3D56"/>
<path d="M588.706 188.209C586.149 192.406 589.556 198.084 596.316 200.891C603.076 203.698 610.629 202.571 613.186 198.374L613.195 198.359C615.746 194.159 610.792 191.017 604.03 188.214C597.267 185.411 591.257 184.009 588.706 188.209Z" fill="white"/>
<path d="M604.914 127.153C608.438 112.94 623.989 104.576 639.65 108.471C655.311 112.367 665.151 127.047 661.628 141.261C658.104 155.474 646.416 155.52 630.755 151.624C615.094 147.729 601.391 141.367 604.914 127.153Z" fill="white"/>
</svg>
