<svg width="326" height="287" viewBox="0 0 326 287" fill="none" xmlns="http://www.w3.org/2000/svg">
<g clip-path="url(#clip0_6_323)">
<path d="M25.8693 123.627L25.6263 123.27C25.573 123.192 20.2991 115.33 21.3395 106.666C22.38 98.0016 29.3655 91.6097 29.4358 91.5463L29.7565 91.257L29.9994 91.6136C30.0527 91.6921 35.3264 99.5534 34.2861 108.218C33.2457 116.882 26.2602 123.274 26.1898 123.338L25.8693 123.627ZM22.0875 106.756C21.2077 114.081 24.9996 120.827 26.0084 122.468C27.3766 121.11 32.6594 115.447 33.5382 108.128C34.4168 100.81 30.6256 94.059 29.6173 92.4163C28.2483 93.7742 22.9662 99.4377 22.0875 106.756Z" fill="#3F3D56"/>
<path d="M25.4785 106.287C28.9813 114.234 26.1996 123.156 26.1996 123.156C26.1996 123.156 17.7386 119.193 14.2358 111.245C10.7329 103.298 13.5147 94.3756 13.5147 94.3756C13.5147 94.3756 21.9756 98.3391 25.4785 106.287Z" fill="#D0CDE1"/>
<path d="M287.314 148.183L219.484 100.378L220.469 98.9796L189.713 77.3031L188.727 78.7015L120.618 30.6997C120.016 30.2751 119.335 29.9733 118.616 29.8116C117.897 29.6499 117.153 29.6315 116.426 29.7574C115.7 29.8833 115.005 30.1511 114.382 30.5454C113.759 30.9397 113.22 31.4529 112.795 32.0555L47.3179 124.961C46.46 126.178 46.1207 127.686 46.3745 129.153C46.6284 130.62 47.4546 131.926 48.6715 132.784L215.367 250.267C215.969 250.692 216.65 250.993 217.369 251.155C218.088 251.317 218.832 251.335 219.559 251.209C220.285 251.083 220.98 250.816 221.603 250.421C222.226 250.027 222.765 249.514 223.19 248.911L288.667 156.006C289.092 155.403 289.394 154.723 289.556 154.003C289.718 153.284 289.736 152.54 289.61 151.813C289.485 151.087 289.217 150.392 288.823 149.77C288.429 149.147 287.916 148.607 287.314 148.183V148.183Z" fill="#3F3D56"/>
<path d="M280.034 155.192L116.465 39.9122L51.4174 132.208L214.986 247.487L280.034 155.192Z" fill="#837CFB"/>
<path d="M199.884 94.9364C200.81 95.5894 202.091 95.3674 202.744 94.4406C203.397 93.5138 203.176 92.2332 202.249 91.5802C201.323 90.9272 200.042 91.1491 199.389 92.0759C198.736 93.0027 198.957 94.2834 199.884 94.9364Z" fill="#837CFB"/>
<path d="M262.365 160.321L254.612 154.856L260.078 147.1L267.831 152.565L262.365 160.321ZM255.186 154.756L262.266 159.746L267.257 152.664L260.177 147.675L255.186 154.756Z" fill="#3F3D56"/>
<path d="M226.913 253.381L210.95 242.131L211.761 240.98C211.782 240.95 211.797 240.916 211.805 240.881C211.813 240.845 211.814 240.808 211.808 240.772C211.801 240.736 211.788 240.701 211.768 240.67C211.749 240.639 211.723 240.613 211.693 240.591L206.22 236.734C206.19 236.713 206.157 236.698 206.121 236.69C206.085 236.682 206.048 236.681 206.012 236.687C205.976 236.694 205.941 236.707 205.91 236.726C205.879 236.746 205.853 236.772 205.831 236.801L205.021 237.952L201.6 235.541L202.411 234.391C202.432 234.361 202.447 234.327 202.455 234.291C202.463 234.255 202.464 234.218 202.458 234.182C202.451 234.146 202.438 234.112 202.419 234.081C202.399 234.05 202.373 234.023 202.344 234.002L196.87 230.145C196.84 230.123 196.807 230.108 196.771 230.1C196.735 230.092 196.698 230.091 196.662 230.098C196.626 230.104 196.591 230.117 196.56 230.137C196.529 230.156 196.503 230.182 196.482 230.212L195.671 231.362L192.25 228.952L193.061 227.801C193.082 227.771 193.097 227.737 193.105 227.702C193.113 227.666 193.114 227.629 193.108 227.593C193.101 227.557 193.088 227.522 193.069 227.491C193.049 227.46 193.024 227.433 192.994 227.412L187.52 223.555C187.49 223.534 187.457 223.519 187.421 223.511C187.385 223.503 187.348 223.502 187.312 223.508C187.276 223.514 187.241 223.528 187.211 223.547C187.18 223.567 187.153 223.592 187.132 223.622L186.321 224.773L182.9 222.362L183.711 221.211C183.732 221.181 183.747 221.148 183.755 221.112C183.763 221.076 183.764 221.039 183.758 221.003C183.752 220.967 183.738 220.932 183.719 220.901C183.699 220.871 183.674 220.844 183.644 220.823L178.171 216.965C178.141 216.944 178.107 216.929 178.071 216.921C178.035 216.913 177.998 216.912 177.962 216.918C177.926 216.925 177.892 216.938 177.861 216.958C177.83 216.977 177.803 217.003 177.782 217.033L176.971 218.183L173.55 215.772L174.361 214.622C174.382 214.592 174.397 214.558 174.405 214.522C174.413 214.487 174.414 214.45 174.408 214.413C174.402 214.377 174.388 214.343 174.369 214.312C174.349 214.281 174.324 214.254 174.294 214.233L168.821 210.376C168.791 210.355 168.757 210.34 168.721 210.332C168.685 210.324 168.648 210.323 168.612 210.329C168.576 210.335 168.542 210.348 168.511 210.368C168.48 210.388 168.453 210.413 168.432 210.443L167.621 211.594L164.2 209.183L165.011 208.032C165.032 208.002 165.047 207.968 165.055 207.933C165.063 207.897 165.064 207.86 165.058 207.824C165.052 207.788 165.038 207.753 165.019 207.722C164.999 207.691 164.974 207.665 164.944 207.643L159.471 203.786C159.441 203.765 159.407 203.75 159.371 203.742C159.335 203.734 159.298 203.733 159.262 203.739C159.226 203.746 159.192 203.759 159.161 203.778C159.13 203.798 159.103 203.824 159.082 203.853L158.271 205.004L154.85 202.593L155.661 201.443C155.682 201.413 155.697 201.379 155.705 201.343C155.713 201.307 155.714 201.27 155.708 201.234C155.702 201.198 155.688 201.164 155.669 201.133C155.649 201.102 155.624 201.075 155.594 201.054L112.721 170.838C112.691 170.817 112.657 170.802 112.622 170.794C112.586 170.786 112.549 170.785 112.513 170.791C112.477 170.797 112.442 170.811 112.411 170.83C112.38 170.85 112.353 170.875 112.332 170.905L111.521 172.056L108.101 169.645L108.912 168.495C108.933 168.465 108.948 168.431 108.956 168.395C108.964 168.359 108.965 168.322 108.958 168.286C108.952 168.25 108.939 168.216 108.919 168.185C108.9 168.154 108.874 168.127 108.844 168.106L103.371 164.248C103.341 164.227 103.307 164.212 103.272 164.204C103.236 164.196 103.199 164.195 103.163 164.202C103.127 164.208 103.092 164.221 103.061 164.241C103.03 164.26 103.003 164.286 102.982 164.316L102.171 165.466L98.7508 163.055L99.5616 161.905C99.5827 161.875 99.5977 161.841 99.6058 161.805C99.6138 161.77 99.6147 161.733 99.6085 161.697C99.6022 161.661 99.589 161.626 99.5694 161.595C99.5498 161.564 99.5243 161.537 99.4943 161.516L94.0212 157.659C93.9913 157.638 93.9574 157.623 93.9217 157.615C93.8859 157.607 93.849 157.606 93.8129 157.612C93.7767 157.618 93.7422 157.632 93.7113 157.651C93.6803 157.671 93.6535 157.696 93.6324 157.726L92.8216 158.877L89.4009 156.466L90.2117 155.315C90.2328 155.285 90.2478 155.252 90.2558 155.216C90.2639 155.18 90.2648 155.143 90.2586 155.107C90.2523 155.071 90.239 155.036 90.2194 155.005C90.1998 154.974 90.1744 154.948 90.1444 154.927L84.6713 151.069C84.6413 151.048 84.6075 151.033 84.5718 151.025C84.536 151.017 84.499 151.016 84.4629 151.022C84.4268 151.029 84.3923 151.042 84.3613 151.062C84.3304 151.081 84.3036 151.107 84.2825 151.137L83.4716 152.287L80.0509 149.876L80.8618 148.726C80.8829 148.696 80.8979 148.662 80.9059 148.626C80.914 148.591 80.9149 148.554 80.9086 148.517C80.9024 148.481 80.8891 148.447 80.8695 148.416C80.8499 148.385 80.8244 148.358 80.7945 148.337L75.3213 144.48C75.2914 144.459 75.2576 144.444 75.2218 144.435C75.1861 144.427 75.1491 144.427 75.113 144.433C75.0769 144.439 75.0424 144.452 75.0114 144.472C74.9805 144.492 74.9537 144.517 74.9325 144.547L74.1217 145.697L70.701 143.287L71.5118 142.136C71.5329 142.106 71.548 142.072 71.556 142.037C71.564 142.001 71.565 141.964 71.5587 141.928C71.5525 141.892 71.5392 141.857 71.5196 141.826C71.5 141.795 71.4745 141.768 71.4446 141.747L65.9714 137.89C65.9415 137.869 65.9077 137.854 65.8719 137.846C65.8362 137.838 65.7992 137.837 65.7631 137.843C65.727 137.849 65.6925 137.863 65.6615 137.882C65.6305 137.902 65.6037 137.927 65.5826 137.957L64.7718 139.108L61.3511 136.697L62.1619 135.547C62.183 135.517 62.198 135.483 62.2061 135.447C62.2141 135.411 62.215 135.374 62.2088 135.338C62.2025 135.302 62.1893 135.268 62.1697 135.237C62.1501 135.206 62.1246 135.179 62.0946 135.158L56.6215 131.3C56.5916 131.279 56.5577 131.264 56.522 131.256C56.4862 131.248 56.4493 131.247 56.4132 131.254C56.3771 131.26 56.3425 131.273 56.3116 131.293C56.2806 131.312 56.2538 131.338 56.2327 131.368L55.4219 132.518L44.9317 125.125C43.4801 124.102 41.6815 123.698 39.9315 124.001C38.1815 124.304 36.6235 125.29 35.6002 126.742L33.8555 129.218C32.8322 130.67 32.4274 132.469 32.7303 134.219C33.0331 135.969 34.0187 137.527 35.4702 138.55L217.452 266.806C218.903 267.829 220.702 268.233 222.452 267.93C224.202 267.627 225.76 266.641 226.783 265.189L228.528 262.713C229.551 261.261 229.956 259.462 229.653 257.712C229.35 255.962 228.365 254.404 226.913 253.381V253.381Z" fill="#3F3D56"/>
<path d="M249.395 280.913L11.4438 113.21L10.9319 113.937L248.883 281.639L249.395 280.913Z" fill="#3F3D56"/>
<path d="M233.677 199.494L181.013 162.378L202.15 132.388L254.814 169.504L233.677 199.494ZM181.902 162.224L233.523 198.605L253.925 169.658L202.303 133.277L181.902 162.224Z" fill="#3F3D56"/>
<path d="M132.986 137.507L86.0575 104.433L106.643 75.2251L153.571 108.299L132.986 137.507ZM86.9466 104.279L132.832 136.618L152.682 108.453L106.796 76.1141L86.9466 104.279Z" fill="#3F3D56"/>
<path d="M115.885 108.671L116.251 108.056C116.97 106.75 118.306 105.712 120.376 105.156C122.223 104.679 123.399 104.199 124.111 103.19C124.917 102.046 124.737 100.778 123.34 99.7599C122.534 99.1873 121.574 98.8732 120.585 98.8592L121.043 97.067C122.163 97.0502 123.693 97.592 124.882 98.4295C127.46 100.247 127.504 102.661 126.303 104.365C125.228 105.89 123.601 106.389 121.624 106.908C119.816 107.379 118.761 108.113 118.023 109.305L117.634 109.904L115.885 108.671ZM113.179 111.463C113.296 111.272 113.451 111.107 113.635 110.978C113.819 110.85 114.028 110.761 114.248 110.717C114.468 110.674 114.694 110.676 114.913 110.724C115.132 110.773 115.339 110.866 115.52 110.998C116.305 111.552 116.432 112.514 115.847 113.344C115.728 113.529 115.572 113.688 115.39 113.811C115.208 113.935 115.002 114.02 114.786 114.062C114.57 114.104 114.347 114.102 114.132 114.056C113.917 114.01 113.713 113.921 113.533 113.794C113.353 113.667 113.201 113.505 113.085 113.318C112.969 113.131 112.892 112.922 112.859 112.704C112.826 112.487 112.837 112.264 112.892 112.051C112.947 111.838 113.045 111.638 113.179 111.463V111.463Z" fill="#D0CDE1"/>
<path d="M214.076 168.116L214.442 167.501C215.161 166.195 216.497 165.156 218.567 164.601C220.413 164.123 221.59 163.644 222.302 162.634C223.108 161.491 222.928 160.222 221.531 159.205C220.725 158.632 219.765 158.318 218.776 158.304L219.234 156.512C220.353 156.495 221.884 157.037 223.073 157.874C225.651 159.691 225.695 162.105 224.493 163.81C223.418 165.335 221.792 165.833 219.815 166.353C218.007 166.824 216.952 167.558 216.213 168.749L215.825 169.348L214.076 168.116ZM211.37 170.908C211.487 170.716 211.642 170.551 211.826 170.423C212.01 170.294 212.219 170.206 212.439 170.162C212.659 170.118 212.885 170.121 213.104 170.169C213.323 170.217 213.53 170.311 213.711 170.443C214.496 170.996 214.623 171.958 214.038 172.788C213.919 172.973 213.763 173.132 213.581 173.256C213.398 173.379 213.193 173.465 212.977 173.507C212.761 173.549 212.538 173.547 212.323 173.501C212.108 173.455 211.904 173.366 211.724 173.239C211.544 173.112 211.392 172.95 211.276 172.763C211.16 172.575 211.083 172.367 211.05 172.149C211.017 171.931 211.028 171.709 211.083 171.496C211.138 171.283 211.236 171.083 211.37 170.908V170.908Z" fill="#D0CDE1"/>
<path d="M142.07 179.222C154.495 187.978 171.668 185.002 180.427 172.573C189.187 160.145 186.215 142.971 173.79 134.214C161.365 125.457 144.192 128.434 135.432 140.862C126.673 153.291 129.645 170.465 142.07 179.222Z" fill="#2F2E41"/>
<path d="M127.522 181.411L121.655 175.453L133.736 162.943L139.603 168.901L127.522 181.411Z" fill="#2F2E41"/>
<path d="M151.337 180.816L145.47 174.859L134.794 185.374L140.661 191.332L151.337 180.816Z" fill="#2F2E41"/>
<path d="M144.694 195.157C145.742 194.165 144.448 191.094 141.804 188.298C139.159 185.503 136.165 184.04 135.117 185.033C134.068 186.025 135.362 189.095 138.007 191.891C140.651 194.687 143.645 196.149 144.694 195.157Z" fill="#2F2E41"/>
<path d="M130.942 184.921C131.921 183.861 130.423 180.884 127.596 178.273C124.769 175.662 121.683 174.405 120.704 175.466C119.725 176.527 121.223 179.503 124.05 182.114C126.877 184.725 129.963 185.982 130.942 184.921Z" fill="#2F2E41"/>
<path d="M157.964 160.014C162.21 163.007 168.08 161.99 171.073 157.742C174.067 153.495 173.052 147.625 168.805 144.632C164.558 141.639 158.689 142.656 155.695 146.904C152.702 151.152 153.717 157.022 157.964 160.014Z" fill="white"/>
<path d="M166.681 154.357C168.096 155.355 170.053 155.016 171.051 153.6C172.048 152.184 171.71 150.227 170.294 149.23C168.879 148.232 166.922 148.571 165.925 149.987C164.927 151.403 165.265 153.36 166.681 154.357Z" fill="#3F3D56"/>
<path d="M157.437 119.728C162.97 111.158 175.122 109.161 184.578 115.267C194.035 121.372 197.215 133.269 191.682 141.839C186.148 150.408 178.424 147.797 168.967 141.692C159.511 135.586 151.903 128.298 157.437 119.728Z" fill="white"/>
<path d="M179.955 171.258C186.989 174.137 193.425 174.681 194.329 172.472C195.233 170.263 190.264 166.139 183.23 163.259C176.196 160.38 169.761 159.836 168.857 162.045C167.952 164.254 172.921 168.378 179.955 171.258Z" fill="#2F2E41"/>
<path d="M130.616 147.479C137.65 150.359 144.085 150.903 144.99 148.694C145.894 146.485 140.925 142.361 133.891 139.481C126.857 136.602 120.422 136.058 119.517 138.267C118.613 140.475 123.582 144.6 130.616 147.479Z" fill="#2F2E41"/>
<path d="M145.501 161.231C144.914 161.809 144.447 162.497 144.125 163.256C143.804 164.015 143.636 164.829 143.629 165.653C143.623 166.476 143.779 167.293 144.088 168.057C144.398 168.82 144.854 169.515 145.432 170.102C146.01 170.688 146.698 171.156 147.456 171.476C148.215 171.797 149.029 171.966 149.852 171.972C150.676 171.978 151.493 171.822 152.256 171.512C153.02 171.203 153.714 170.746 154.301 170.168C156.77 167.737 155.311 165.233 152.88 162.765C150.45 160.297 147.969 158.8 145.501 161.231Z" fill="white"/>
<path d="M154.898 57.8879L117.906 31.817L93.0994 67.0145L130.091 93.0855L154.898 57.8879Z" fill="#D0CDE1"/>
<path d="M147.731 59.1301L119.146 38.9844L103.736 60.8492L132.321 80.995L147.731 59.1301Z" fill="white"/>
<path d="M117.438 74.3667L101.89 63.4088L101.313 64.2273L116.861 75.1853L117.438 74.3667Z" fill="#F2F2F2"/>
<path d="M115.707 76.8224L100.159 65.8644L99.5823 66.683L115.13 77.6409L115.707 76.8224Z" fill="#F2F2F2"/>
<path d="M114.215 56.7815C116.023 58.0556 118.522 57.6226 119.796 55.8143C121.071 54.006 120.638 51.5072 118.831 50.2332C117.023 48.9591 114.524 49.3921 113.25 51.2004C111.975 53.0087 112.408 55.5075 114.215 56.7815Z" fill="#3F3D56"/>
<path d="M123.422 63.2698C125.229 64.5439 127.728 64.1108 129.002 62.3025C130.277 60.4942 129.844 57.9955 128.037 56.7214C126.229 55.4473 123.73 55.8804 122.456 57.6887C121.181 59.4969 121.614 61.9957 123.422 63.2698Z" fill="#837CFB"/>
<path d="M132.628 69.758C134.435 71.0321 136.934 70.599 138.209 68.7908C139.483 66.9825 139.051 64.4837 137.243 63.2096C135.435 61.9356 132.936 62.3686 131.662 64.1769C130.388 65.9852 130.82 68.4839 132.628 69.758Z" fill="#E6E6E6"/>
<path d="M133.806 48.5359C134.71 49.173 135.959 48.9564 136.596 48.0523C137.233 47.1482 137.017 45.8988 136.113 45.2617C135.209 44.6247 133.96 44.8412 133.323 45.7454C132.686 46.6495 132.902 47.8989 133.806 48.5359Z" fill="#3F3D56"/>
<path d="M124.46 138.441L87.4681 112.37L62.6618 147.568L99.6535 173.639L124.46 138.441Z" fill="#D0CDE1"/>
<path d="M117.293 139.683L88.7083 119.538L73.2984 141.402L101.883 161.548L117.293 139.683Z" fill="white"/>
<path d="M102.487 134.626L92.4659 127.564L85.4013 137.588L95.4223 144.65L102.487 134.626Z" fill="#837CFB"/>
<path d="M94.5354 132.774L85.9571 144.946L98.1255 153.522L106.704 141.35L94.5354 132.774ZM97.9697 152.622L86.8569 144.79L94.6911 133.674L105.804 141.506L97.9697 152.622Z" fill="#3F3D56"/>
<path d="M87.2887 154.511L71.7406 143.553L71.1637 144.371L86.7118 155.329L87.2887 154.511Z" fill="#F2F2F2"/>
<path d="M103.368 129.089C104.272 129.726 105.521 129.51 106.158 128.606C106.796 127.701 106.579 126.452 105.676 125.815C104.772 125.178 103.522 125.394 102.885 126.299C102.248 127.203 102.464 128.452 103.368 129.089Z" fill="#3F3D56"/>
<path d="M228.198 195.782L191.206 169.711L166.399 204.908L203.391 230.979L228.198 195.782Z" fill="#D0CDE1"/>
<path d="M221.031 197.024L192.446 176.878L177.036 198.743L205.621 218.889L221.031 197.024Z" fill="white"/>
<path d="M197.749 206.235L191.6 201.901L190.315 203.724L196.465 208.058L197.749 206.235Z" fill="#3F3D56"/>
<path d="M215.186 197.283L194.168 182.47L193.617 183.251L214.635 198.064L215.186 197.283Z" fill="#3F3D56"/>
<path d="M213.442 199.756L192.424 184.943L191.874 185.725L212.892 200.538L213.442 199.756Z" fill="#3F3D56"/>
<path d="M211.699 202.23L190.681 187.417L190.13 188.198L211.148 203.011L211.699 202.23Z" fill="#3F3D56"/>
<path d="M209.955 204.704L188.937 189.891L188.387 190.672L209.405 205.485L209.955 204.704Z" fill="#3F3D56"/>
<path d="M208.212 207.178L187.194 192.365L186.643 193.146L207.661 207.959L208.212 207.178Z" fill="#3F3D56"/>
<path d="M191.026 211.851L175.478 200.893L174.901 201.712L190.449 212.67L191.026 211.851Z" fill="#F2F2F2"/>
<path d="M195.721 218.223L174.036 202.94L173.459 203.758L195.145 219.042L195.721 218.223Z" fill="#F2F2F2"/>
<path d="M207.106 186.43C208.01 187.067 209.259 186.85 209.896 185.946C210.533 185.042 210.317 183.793 209.413 183.155C208.509 182.518 207.26 182.735 206.623 183.639C205.986 184.543 206.202 185.793 207.106 186.43Z" fill="#3F3D56"/>
</g>
<defs>
<clipPath id="clip0_6_323">
<rect width="300.267" height="138.919" fill="white" transform="translate(80.0283) rotate(35.1753)"/>
</clipPath>
</defs>
</svg>
