<svg width="446" height="412" viewBox="0 0 446 412" fill="none" xmlns="http://www.w3.org/2000/svg">
<g clip-path="url(#clip0_6_436)">
<path d="M406.327 330.077L370.123 276.321C370.123 276.321 424.952 295.454 418.729 330.077H406.327Z" fill="#E5E5E5"/>
<path d="M31.0361 330.434L29.6617 330.407C30.1932 315.131 31.8237 299.913 34.5406 284.872C40.4839 252.667 50.3666 231.517 63.9142 222.008L64.7034 223.133C33.0561 245.344 31.0522 329.585 31.0361 330.434Z" fill="#E5E5E5"/>
<path d="M48.2163 330.105L46.8419 330.078C46.8715 328.557 47.7305 292.699 61.8525 282.788L62.6417 283.912C49.0894 293.424 48.223 329.74 48.2163 330.105Z" fill="#E5E5E5"/>
<path d="M72.5224 223.257C76.3178 223.257 79.3945 220.182 79.3945 216.388C79.3945 212.594 76.3178 209.519 72.5224 209.519C68.7271 209.519 65.6503 212.594 65.6503 216.388C65.6503 220.182 68.7271 223.257 72.5224 223.257Z" fill="#837CFB"/>
<path d="M69.1192 282.335C72.9146 282.335 75.9914 279.259 75.9914 275.465C75.9914 271.671 72.9146 268.596 69.1192 268.596C65.3239 268.596 62.2471 271.671 62.2471 275.465C62.2471 279.259 65.3239 282.335 69.1192 282.335Z" fill="#837CFB"/>
<path d="M45.0131 227.375C46.3046 235.621 42.9385 242.997 42.9385 242.997C42.9385 242.997 37.4784 237.003 36.1869 228.757C34.8954 220.511 38.2615 213.135 38.2615 213.135C38.2615 213.135 43.7216 219.129 45.0131 227.375Z" fill="#E5E5E5"/>
<path d="M67.4761 247.402C59.578 250.11 51.7261 248.082 51.7261 248.082C51.7261 248.082 56.6794 241.663 64.5775 238.955C72.4756 236.247 80.3275 238.275 80.3275 238.275C80.3275 238.275 75.3742 244.694 67.4761 247.402Z" fill="#E5E5E5"/>
<path d="M67.7298 299.721C64.1552 300.843 60.3484 301.007 56.6903 300.197C59.013 297.241 62.1413 295.02 65.6982 293.8C69.255 292.58 73.0888 292.415 76.7377 293.323C74.3472 296.207 71.241 298.413 67.7298 299.721V299.721Z" fill="#E5E5E5"/>
<path d="M445.313 331.451H0.687211C0.504951 331.451 0.330167 331.379 0.201289 331.25C0.0724124 331.121 0 330.946 0 330.764C0 330.582 0.0724124 330.407 0.201289 330.278C0.330167 330.15 0.504951 330.077 0.687211 330.077H445.313C445.495 330.077 445.67 330.15 445.799 330.278C445.928 330.407 446 330.582 446 330.764C446 330.946 445.928 331.121 445.799 331.25C445.67 331.379 445.495 331.451 445.313 331.451Z" fill="#CBCBCB"/>
<path d="M281.614 363.119L275.992 377.746L216.875 363.03L225.172 341.441L281.614 363.119Z" fill="#FFB7B7"/>
<path d="M297.232 364.836L279.104 412L278.507 411.771C273.636 409.9 269.709 406.172 267.588 401.407C265.467 396.642 265.327 391.229 267.197 386.36L267.198 386.359L278.27 357.553L297.232 364.836Z" fill="#2F2E41"/>
<path d="M191.783 179.973L166.021 182.385L164.743 259.008C165.084 262.763 166.884 266.235 169.755 268.681C172.626 271.126 176.341 272.35 180.104 272.091L196.438 270.966L191.783 179.973Z" fill="#E5E5E5"/>
<path d="M282.607 176.202L264.979 175.975L263.935 267.02C267.83 267.15 271.711 266.476 275.334 265.04C278.957 263.605 282.246 261.438 284.994 258.676C287.743 255.914 289.892 252.615 291.309 248.986C292.726 245.357 293.379 241.474 293.229 237.581L282.607 176.202Z" fill="#E5E5E5"/>
<path d="M180.325 299.364C179.907 302.004 179.301 304.612 178.511 307.166C177.622 309.667 176.249 311.979 175.435 314.505C172.843 322.557 176.437 331.534 182.177 337.749C187.155 343.118 193.58 346.931 200.677 348.731C205.856 350.033 211.24 350.22 216.576 350.401C231.353 350.902 246.51 351.35 260.512 346.603C264.936 345.066 269.209 343.126 273.277 340.806C274.561 340.195 275.693 339.304 276.589 338.199C277.657 336.68 277.794 334.708 277.784 332.851C277.753 326.589 276.483 320.359 276.784 314.105C276.951 310.64 277.6 307.179 277.281 303.725C276.839 299.802 275.195 296.112 272.574 293.159C269.954 290.207 266.484 288.136 262.64 287.23C258.668 286.377 254.549 286.842 250.505 287.23C240.008 288.239 229.466 288.71 218.921 288.642C208.146 288.573 197.438 286.929 186.717 286.758C183.547 286.707 183.611 287.684 182.602 290.751C181.672 293.574 180.912 296.45 180.325 299.364V299.364Z" fill="#2F2E41"/>
<path d="M138.193 294.274C135.295 293.546 132.31 293.229 129.324 293.332C126.187 293.505 123.123 294.344 120.336 295.793C117.548 297.242 115.101 299.267 113.157 301.734C111.214 304.202 109.817 307.054 109.062 310.103C108.306 313.151 108.209 316.325 108.775 319.414C109.499 322.76 110.681 325.99 112.289 329.013C114.641 333.784 117.462 338.544 121.816 341.601C124.363 343.39 127.311 344.505 130.223 345.602L153.155 354.237C156.528 355.507 159.902 356.778 163.309 357.956C180.425 363.87 198.269 367.416 216.346 368.496C221.852 368.823 227.442 368.915 232.814 367.662C234.088 367.364 235.448 366.921 236.186 365.84C236.623 365.079 236.881 364.228 236.94 363.352L238.351 353.478C238.549 352.087 238.74 350.624 238.231 349.315C237.584 347.656 235.964 346.612 234.419 345.725C219.343 337.069 201.741 332.294 189.051 320.415C186.064 317.618 183.564 313.185 179.934 311.286C175.819 309.132 170.971 307.902 166.717 305.917C157.417 301.577 148.273 296.59 138.193 294.274Z" fill="#2F2E41"/>
<path opacity="0.1" d="M161.086 307.587C169.191 310.125 203.412 327.714 209.277 333.855C208.491 334.138 181.816 319.195 181.015 318.955C173.739 316.772 166.423 314.575 159.514 311.38C158.124 310.738 150.483 307.717 150.829 305.964C151.22 303.986 159.647 307.136 161.086 307.587Z" fill="black"/>
<path d="M210.003 154.22L188.179 170.783C188.179 170.783 165.152 171.503 165.93 186.218C166.708 200.932 175.924 270.6 175.924 270.6L177.924 294.571L215.853 305.374C236.347 311.211 257.999 311.675 278.724 306.721V306.721L274.216 282.673C274.216 282.673 292.468 173.454 281.472 168.646C270.477 163.837 263.605 165.211 263.605 165.211L249.823 153.189L210.003 154.22Z" fill="white"/>
<path d="M274.6 127.466C274.6 148.968 254.71 145.716 230.175 145.716C205.64 145.716 185.75 148.968 185.75 127.466C185.75 105.964 195.466 67.8498 230.175 67.8498C266.08 67.8498 274.6 105.964 274.6 127.466Z" fill="#2F2E41"/>
<path d="M253.268 134.753C264.943 123.083 264.943 104.163 253.268 92.4928C241.594 80.8231 222.666 80.8231 210.992 92.4928C199.318 104.163 199.318 123.083 210.992 134.753C222.666 146.423 241.594 146.422 253.268 134.753Z" fill="#FFB7B7"/>
<path d="M195.487 112.866H207.311L212.527 98.2661L213.57 112.866H219.221L222.264 104.349L222.872 112.866H264.863C264.863 104.476 261.529 96.4304 255.595 90.4981C249.66 84.5657 241.611 81.233 233.218 81.233H227.132C218.739 81.233 210.69 84.5657 204.756 90.4981C198.821 96.4304 195.487 104.476 195.487 112.866V112.866Z" fill="#2F2E41"/>
<path d="M260.169 157.654H200.382V229.783H260.169V157.654Z" fill="#837CFB"/>
<path d="M203.676 362.432L209.299 377.059L268.416 362.343L260.118 340.754L203.676 362.432Z" fill="#FFB7B7"/>
<path d="M207.02 356.866L218.092 385.672L218.093 385.674C219.964 390.542 219.823 395.955 217.702 400.72C215.581 405.485 211.654 409.213 206.783 411.084L206.186 411.313L188.058 364.149L207.02 356.866Z" fill="#2F2E41"/>
<path d="M321.845 288.675C326.594 287.485 331.517 287.149 336.384 287.682C340.271 288.111 344.276 289.192 347.114 291.881C350.568 295.154 351.678 300.216 351.77 304.973C351.922 314.448 348.778 323.681 342.876 331.095C341.435 332.971 339.721 334.62 337.792 335.988C335.71 337.29 333.491 338.359 331.176 339.175L279.822 359.423C266.312 364.75 252.754 370.092 238.663 373.603C237.897 373.973 237.015 374.023 236.212 373.743C235.408 373.463 234.749 372.875 234.379 372.11C234.368 372.086 234.357 372.063 234.346 372.039C229.847 365.614 226.072 358.712 223.091 351.458C222.95 351.286 222.852 351.082 222.807 350.864C222.761 350.646 222.769 350.42 222.829 350.205C222.889 349.991 223 349.794 223.152 349.631C223.305 349.469 223.494 349.345 223.704 349.271L260.027 328.41C262.629 326.915 265.26 325.399 267.42 323.318C268.99 321.797 270.275 320.008 271.216 318.035C271.969 316.463 272.039 312.754 273.001 311.592C273.942 310.454 277.163 310.363 278.651 309.916C280.749 309.274 282.804 308.497 284.802 307.592C292.928 303.958 300.163 298.679 307.952 294.424C312.321 291.927 316.989 289.996 321.845 288.675V288.675Z" fill="#2F2E41"/>
<path opacity="0.1" d="M301.253 304.255C295.013 308.94 286.932 313.247 280.747 318.056C278.637 319.697 243.448 339.472 242.951 342.099C248.721 343.07 285.477 317.366 290.736 314.802C295.995 312.237 300.657 308.62 305.277 305.03C306.454 304.115 311.443 301.364 308.064 300.342C306.16 299.766 302.658 303.318 301.253 304.255Z" fill="black"/>
<path d="M413.417 123.454C425.277 123.454 434.891 113.844 434.891 101.989C434.891 90.1335 425.277 80.523 413.417 80.523C401.557 80.523 391.943 90.1335 391.943 101.989C391.943 113.844 401.557 123.454 413.417 123.454Z" fill="#F1F1F1"/>
<path d="M373.674 127.299C381.994 127.299 388.738 120.557 388.738 112.241C388.738 103.925 381.994 97.1829 373.674 97.1829C365.355 97.1829 358.611 103.925 358.611 112.241C358.611 120.557 365.355 127.299 373.674 127.299Z" fill="#F1F1F1"/>
<path d="M97.7306 117.476C104.401 117.476 109.809 112.07 109.809 105.402C109.809 98.7341 104.401 93.3285 97.7306 93.3285C91.0598 93.3285 85.6521 98.7341 85.6521 105.402C85.6521 112.07 91.0598 117.476 97.7306 117.476Z" fill="white"/>
<path d="M117.617 125.595C122.296 125.595 126.089 121.803 126.089 117.125C126.089 112.448 122.296 108.656 117.617 108.656C112.937 108.656 109.144 112.448 109.144 117.125C109.144 121.803 112.937 125.595 117.617 125.595Z" fill="white"/>
<path d="M234.788 18.4585C239.887 18.4585 244.021 14.3264 244.021 9.22926C244.021 4.13208 239.887 0 234.788 0C229.689 0 225.555 4.13208 225.555 9.22926C225.555 14.3264 229.689 18.4585 234.788 18.4585Z" fill="white"/>
<path opacity="0.17" d="M179.765 203.68L180.59 197.312C180.59 197.312 211.377 199.558 206.566 207.114C201.756 214.671 190.073 215.358 190.073 215.358L179.765 203.68Z" fill="#2F2E41"/>
<path d="M203.004 175.991C204.767 176.185 206.466 176.767 207.978 177.695C209.49 178.623 210.778 179.874 211.749 181.358V181.358C212.633 182.713 213.235 184.232 213.518 185.825C213.8 187.417 213.758 189.051 213.393 190.627C213.028 192.203 212.349 193.689 211.395 194.996C210.441 196.302 209.233 197.403 207.843 198.231C207.334 198.532 206.802 198.794 206.252 199.013L187.329 256.873C186.78 258.014 186.012 259.037 185.067 259.88C184.122 260.724 183.02 261.373 181.823 261.789C180.627 262.206 179.36 262.382 178.095 262.307C176.831 262.232 175.593 261.909 174.454 261.354C173.315 260.8 172.297 260.026 171.458 259.077C170.619 258.128 169.976 257.022 169.566 255.824C169.156 254.626 168.987 253.359 169.068 252.095C169.15 250.831 169.481 249.596 170.041 248.46L190.166 191.243C189.617 189.35 189.545 187.351 189.953 185.423C190.362 183.495 191.24 181.697 192.51 180.189C193.779 178.681 195.401 177.509 197.231 176.777C199.061 176.045 201.044 175.775 203.004 175.991Z" fill="#FFB7B7"/>
<path d="M180.048 197.854C180.048 197.854 190.89 216.372 206.566 207.115L191.374 265.229H178.575L165.334 262.757L169.041 238.746L180.048 197.854Z" fill="white"/>
<path d="M257.469 210.511L248.486 198.184C248.486 198.184 252.803 185.398 269.543 190.074C269.543 190.074 280.195 213.908 257.469 210.511Z" fill="#E5E5E5"/>
<path opacity="0.17" d="M257.469 210.511L248.486 198.184C248.486 198.184 252.803 185.398 269.543 190.074C269.543 190.074 280.195 213.908 257.469 210.511Z" fill="#2F2E41"/>
<path d="M259.847 167.443C262.438 168.647 264.511 170.741 265.688 173.344C266.866 175.947 267.069 178.886 266.262 181.626L286.386 238.843C286.947 239.979 287.278 241.214 287.359 242.478C287.441 243.742 287.272 245.009 286.862 246.207C286.452 247.406 285.809 248.511 284.97 249.46C284.131 250.409 283.113 251.183 281.974 251.738C280.834 252.292 279.597 252.616 278.332 252.69C277.067 252.765 275.8 252.589 274.604 252.173C273.407 251.756 272.305 251.107 271.36 250.263C270.415 249.42 269.647 248.397 269.099 247.256L250.175 189.396C249.626 189.177 249.094 188.915 248.584 188.614C247.194 187.786 245.986 186.685 245.032 185.378C244.079 184.072 243.399 182.586 243.034 181.01C242.669 179.434 242.627 177.8 242.91 176.207C243.192 174.615 243.794 173.095 244.679 171.741V171.741C245.65 170.257 246.937 169.006 248.449 168.078C249.961 167.15 251.66 166.568 253.423 166.374C255.622 166.125 257.847 166.495 259.847 167.443Z" fill="#FFB7B7"/>
<path d="M248.486 198.184C248.486 198.184 263.306 207.173 269.543 190.074L290.427 245.039L284.221 255.887L283.324 255.962C279.622 256.271 275.9 255.676 272.479 254.23C269.057 252.784 266.038 250.529 263.681 247.66V247.66C258.872 241.806 255.599 234.848 254.156 227.412L248.486 198.184Z" fill="white"/>
</g>
<defs>
<clipPath id="clip0_6_436">
<rect width="446" height="412" fill="white"/>
</clipPath>
</defs>
</svg>
