<svg width="15" height="13" viewBox="0 0 15 13" fill="none" xmlns="http://www.w3.org/2000/svg">
<g clip-path="url(#clip0_8_84)">
<path d="M6.22037 7.28926C6.47132 7.57913 6.7915 7.81897 7.15917 7.99253C7.52685 8.16608 7.93342 8.26929 8.35133 8.29515C8.76923 8.32101 9.18868 8.26891 9.58123 8.1424C9.97377 8.01588 10.3302 7.8179 10.6264 7.5619L12.3795 6.04726C12.9118 5.57115 13.2063 4.93349 13.1996 4.2716C13.1929 3.60971 12.8857 2.97656 12.3439 2.50852C11.8022 2.04048 11.0694 1.77499 10.3033 1.76924C9.53721 1.76348 8.79916 2.01793 8.2481 2.47777L7.243 3.34111" stroke="#7C92CB" stroke-width="2" stroke-linecap="round" stroke-linejoin="round"/>
<path d="M8.55781 6.2795C8.30685 5.98964 7.98668 5.74979 7.619 5.57624C7.25133 5.40268 6.84475 5.29948 6.42685 5.27362C6.00895 5.24776 5.5895 5.29985 5.19695 5.42637C4.8044 5.55288 4.44793 5.75086 4.15173 6.00687L2.39865 7.52151C1.86642 7.99761 1.57192 8.63528 1.57857 9.29717C1.58523 9.95906 1.89251 10.5922 2.43424 11.0602C2.97597 11.5283 3.70879 11.7938 4.47488 11.7995C5.24096 11.8053 5.97902 11.5508 6.53008 11.091L7.52933 10.2277" stroke="#7C92CB" stroke-width="2" stroke-linecap="round" stroke-linejoin="round"/>
</g>
<defs>
<clipPath id="clip0_8_84">
<rect width="14.0246" height="12.1171" fill="white" transform="translate(0.376762 0.72584)"/>
</clipPath>
</defs>
</svg>
