<svg width="16" height="14" viewBox="0 0 16 14" fill="none" xmlns="http://www.w3.org/2000/svg">
<g clip-path="url(#clip0_8_73)">
<path d="M13.7766 6.40424C13.7766 10.1908 8.14171 13.4365 8.14171 13.4365C8.14171 13.4365 2.50681 10.1908 2.50681 6.40424C2.50681 5.11304 3.10048 3.87473 4.15723 2.96171C5.21398 2.0487 6.64724 1.53577 8.14171 1.53577C9.63618 1.53577 11.0694 2.0487 12.1262 2.96171C13.1829 3.87473 13.7766 5.11304 13.7766 6.40424Z" stroke="#7C92CB" stroke-width="2" stroke-linecap="round" stroke-linejoin="round"/>
<path d="M8.14171 8.02707C9.17907 8.02707 10.02 7.3005 10.02 6.40424C10.02 5.50798 9.17907 4.78142 8.14171 4.78142C7.10436 4.78142 6.26341 5.50798 6.26341 6.40424C6.26341 7.3005 7.10436 8.02707 8.14171 8.02707Z" stroke="#7C92CB" stroke-width="2" stroke-linecap="round" stroke-linejoin="round"/>
</g>
<defs>
<clipPath id="clip0_8_73">
<rect width="15.0264" height="12.9826" fill="white" transform="translate(0.62851 0.994827)"/>
</clipPath>
</defs>
</svg>
