<svg width="292" height="301" viewBox="0 0 292 301" fill="none" xmlns="http://www.w3.org/2000/svg">
<circle cx="146" cy="155" r="146" fill="#BCB9FC"/>
<g clip-path="url(#clip0_28_673)">
<path d="M258.271 205.898L235.704 172.365C235.704 172.365 269.88 184.3 266.002 205.898H258.271Z" fill="#E5E5E5"/>
<path d="M24.3452 206.12L23.4885 206.103C23.8199 196.575 24.8362 187.082 26.5297 177.699C30.2342 157.61 36.3943 144.417 44.8387 138.486L45.3307 139.187C25.6043 153.042 24.3553 205.591 24.3452 206.12Z" fill="#E5E5E5"/>
<path d="M35.0542 205.915L34.1975 205.898C34.2159 204.949 34.7514 182.582 43.5539 176.399L44.0458 177.101C35.5984 183.034 35.0584 205.687 35.0542 205.915Z" fill="#E5E5E5"/>
<path d="M50.2047 139.265C52.5704 139.265 54.4882 137.346 54.4882 134.98C54.4882 132.613 52.5704 130.695 50.2047 130.695C47.8389 130.695 45.9211 132.613 45.9211 134.98C45.9211 137.346 47.8389 139.265 50.2047 139.265Z" fill="#837CFB"/>
<path d="M48.0833 176.116C50.449 176.116 52.3668 174.198 52.3668 171.831C52.3668 169.465 50.449 167.546 48.0833 167.546C45.7176 167.546 43.7998 169.465 43.7998 171.831C43.7998 174.198 45.7176 176.116 48.0833 176.116Z" fill="#837CFB"/>
<path d="M33.0576 141.834C33.8626 146.977 31.7644 151.578 31.7644 151.578C31.7644 151.578 28.361 147.839 27.556 142.695C26.751 137.551 28.8492 132.951 28.8492 132.951C28.8492 132.951 32.2525 136.69 33.0576 141.834Z" fill="#E5E5E5"/>
<path d="M47.059 154.326C42.1359 156.015 37.2417 154.75 37.2417 154.75C37.2417 154.75 40.3292 150.746 45.2522 149.057C50.1753 147.368 55.0695 148.633 55.0695 148.633C55.0695 148.633 51.982 152.637 47.059 154.326Z" fill="#E5E5E5"/>
<path d="M47.2173 186.962C44.9892 187.662 42.6163 187.764 40.3362 187.259C41.784 185.415 43.7339 184.029 45.9509 183.268C48.168 182.508 50.5577 182.404 52.8321 182.971C51.342 184.77 49.4059 186.146 47.2173 186.962Z" fill="#E5E5E5"/>
<path d="M282.572 206.755H5.42835C5.31475 206.755 5.2058 206.71 5.12547 206.629C5.04514 206.549 5 206.44 5 206.326C5 206.213 5.04514 206.104 5.12547 206.023C5.2058 205.943 5.31475 205.898 5.42835 205.898H282.572C282.685 205.898 282.794 205.943 282.875 206.023C282.955 206.104 283 206.213 283 206.326C283 206.44 282.955 206.549 282.875 206.629C282.794 206.71 282.685 206.755 282.572 206.755Z" fill="#CBCBCB"/>
<path d="M180.535 226.509L177.031 235.633L140.182 226.453L145.354 212.986L180.535 226.509Z" fill="#FFB7B7"/>
<path d="M190.27 227.58L178.97 257L178.598 256.857C175.562 255.69 173.114 253.365 171.792 250.392C170.47 247.42 170.383 244.044 171.549 241.006L171.549 241.006L178.451 223.037L190.27 227.58Z" fill="#2F2E41"/>
<path d="M124.542 112.265L108.484 113.769L107.687 161.566C107.9 163.908 109.021 166.074 110.811 167.599C112.601 169.125 114.917 169.888 117.262 169.727L127.443 169.025L124.542 112.265Z" fill="#E5E5E5"/>
<path d="M181.154 109.912L170.167 109.771L169.516 166.563C171.944 166.644 174.362 166.224 176.621 165.328C178.879 164.433 180.929 163.082 182.642 161.359C184.355 159.636 185.695 157.578 186.578 155.314C187.461 153.05 187.869 150.628 187.775 148.2L181.154 109.912Z" fill="#E5E5E5"/>
<path d="M117.4 186.739C117.139 188.386 116.762 190.013 116.269 191.606C115.715 193.166 114.859 194.608 114.352 196.184C112.736 201.207 114.976 206.807 118.554 210.684C121.657 214.032 125.662 216.411 130.086 217.534C133.313 218.346 136.67 218.463 139.996 218.575C149.206 218.888 158.654 219.167 167.382 216.206C170.139 215.248 172.803 214.037 175.338 212.59C176.139 212.209 176.844 211.653 177.403 210.964C178.069 210.016 178.154 208.787 178.148 207.628C178.128 203.722 177.337 199.836 177.525 195.934C177.629 193.773 178.033 191.614 177.834 189.459C177.559 187.013 176.534 184.711 174.9 182.869C173.267 181.027 171.104 179.735 168.708 179.17C166.233 178.638 163.665 178.928 161.144 179.171C154.601 179.799 148.03 180.093 141.457 180.051C134.741 180.008 128.067 178.983 121.384 178.876C119.408 178.844 119.448 179.453 118.819 181.367C118.239 183.128 117.765 184.922 117.4 186.739Z" fill="#2F2E41"/>
<path d="M91.1381 183.564C89.3321 183.11 87.4714 182.912 85.6103 182.976C83.655 183.085 81.7451 183.608 80.0076 184.512C78.2701 185.415 76.7448 186.679 75.5331 188.218C74.3215 189.757 73.4513 191.536 72.9803 193.438C72.5094 195.339 72.4485 197.319 72.8017 199.246C73.2527 201.333 73.9898 203.348 74.9921 205.234C76.4581 208.21 78.2163 211.179 80.9302 213.086C82.5178 214.202 84.3552 214.898 86.1707 215.582L100.464 220.968C102.567 221.761 104.67 222.553 106.794 223.288C117.462 226.977 128.585 229.189 139.853 229.863C143.285 230.067 146.769 230.124 150.117 229.342C150.912 229.157 151.759 228.88 152.219 228.206C152.492 227.731 152.652 227.201 152.689 226.654L153.568 220.495C153.692 219.627 153.811 218.714 153.494 217.898C153.091 216.863 152.081 216.212 151.118 215.658C141.721 210.259 130.749 207.281 122.839 199.87C120.977 198.126 119.419 195.361 117.156 194.176C114.591 192.832 111.57 192.065 108.918 190.827C103.121 188.12 97.421 185.009 91.1381 183.564Z" fill="#2F2E41"/>
<path opacity="0.1" d="M105.408 191.868C110.46 193.452 131.79 204.424 135.447 208.254C134.956 208.431 118.329 199.109 117.83 198.96C113.295 197.598 108.735 196.227 104.428 194.235C103.561 193.834 98.799 191.95 99.0147 190.856C99.258 189.622 104.511 191.587 105.408 191.868Z" fill="black"/>
<path d="M135.898 96.2001L122.296 106.532C122.296 106.532 107.942 106.981 108.427 116.16C108.912 125.339 114.657 168.797 114.657 168.797L115.903 183.749L139.545 190.488C152.319 194.129 165.815 194.419 178.734 191.329L175.924 176.327C175.924 176.327 187.301 108.198 180.447 105.199C173.593 102.199 169.31 103.056 169.31 103.056L160.719 95.5574L135.898 96.2001Z" fill="#E5E5E5"/>
<path d="M176.164 79.5114C176.164 92.9241 163.766 90.8954 148.473 90.8954C133.179 90.8954 120.781 92.9241 120.781 79.5114C120.781 66.0987 126.837 42.3237 148.473 42.3237C170.853 42.3237 176.164 66.0987 176.164 79.5114Z" fill="#2F2E41"/>
<path d="M162.867 84.0569C170.144 76.7775 170.144 64.9752 162.867 57.6958C155.59 50.4163 143.792 50.4163 136.515 57.6958C129.238 64.9752 129.238 76.7775 136.515 84.0569C143.792 91.3363 155.59 91.3363 162.867 84.0569Z" fill="#FFB7B7"/>
<path d="M126.851 70.4042H134.22L137.472 61.297L138.122 70.4042H141.644L143.541 65.0917L143.92 70.4042H170.094C170.094 65.1709 168.016 60.1519 164.317 56.4514C160.618 52.7509 155.6 50.672 150.369 50.672H146.576C141.344 50.672 136.327 52.7509 132.628 56.4514C128.929 60.1519 126.851 65.1709 126.851 70.4042Z" fill="#2F2E41"/>
<path d="M167.168 98.3427H129.901V143.336H167.168V98.3427Z" fill="#837CFB"/>
<path d="M131.955 226.08L135.46 235.204L172.309 226.025L167.136 212.558L131.955 226.08Z" fill="#FFB7B7"/>
<path d="M134.04 222.608L140.941 240.577L140.941 240.578C142.107 243.615 142.02 246.991 140.698 249.964C139.376 252.936 136.928 255.262 133.892 256.428L133.52 256.571L122.22 227.151L134.04 222.608Z" fill="#2F2E41"/>
<path d="M205.612 180.072C208.572 179.329 211.641 179.12 214.675 179.452C217.097 179.719 219.594 180.394 221.362 182.071C223.515 184.113 224.207 187.271 224.265 190.238C224.36 196.148 222.4 201.908 218.721 206.533C217.823 207.703 216.755 208.732 215.552 209.585C214.254 210.397 212.872 211.064 211.428 211.573L179.419 224.203C170.997 227.526 162.547 230.858 153.763 233.049C153.285 233.279 152.736 233.311 152.235 233.136C151.734 232.961 151.324 232.595 151.093 232.117C151.086 232.102 151.079 232.088 151.073 232.073C148.268 228.065 145.915 223.76 144.057 219.235C143.969 219.127 143.908 219 143.88 218.864C143.851 218.728 143.856 218.587 143.893 218.453C143.931 218.32 144 218.197 144.095 218.095C144.19 217.994 144.308 217.917 144.439 217.871L167.08 204.857C168.702 203.925 170.341 202.98 171.688 201.681C172.667 200.733 173.468 199.617 174.054 198.386C174.523 197.406 174.567 195.092 175.167 194.367C175.753 193.657 177.761 193.6 178.689 193.321C179.996 192.921 181.277 192.436 182.523 191.871C187.587 189.605 192.097 186.312 196.952 183.658C199.675 182.1 202.585 180.895 205.612 180.072Z" fill="#2F2E41"/>
<path opacity="0.1" d="M192.777 189.79C188.887 192.713 183.85 195.399 179.995 198.399C178.679 199.422 156.746 211.758 156.436 213.396C160.032 214.003 182.943 197.969 186.221 196.369C189.499 194.769 192.405 192.513 195.285 190.273C196.018 189.703 199.128 187.987 197.022 187.349C195.835 186.99 193.653 189.206 192.777 189.79Z" fill="black"/>
<path d="M262.691 77.0089C270.083 77.0089 276.076 71.0141 276.076 63.619C276.076 56.224 270.083 50.2291 262.691 50.2291C255.298 50.2291 249.305 56.224 249.305 63.619C249.305 71.0141 255.298 77.0089 262.691 77.0089Z" fill="white"/>
<path d="M237.918 79.4072C243.104 79.4072 247.308 75.2018 247.308 70.0142C247.308 64.8267 243.104 60.6213 237.918 60.6213C232.732 60.6213 228.529 64.8267 228.529 70.0142C228.529 75.2018 232.732 79.4072 237.918 79.4072Z" fill="#F1F1F1"/>
<path d="M65.9171 73.2799C70.0751 73.2799 73.4458 69.9079 73.4458 65.7485C73.4458 61.589 70.0751 58.217 65.9171 58.217C61.7591 58.217 58.3884 61.589 58.3884 65.7485C58.3884 69.9079 61.7591 73.2799 65.9171 73.2799Z" fill="#F1F1F1"/>
<path d="M78.3124 78.3444C81.2292 78.3444 83.5937 75.979 83.5937 73.0612C83.5937 70.1433 81.2292 67.778 78.3124 67.778C75.3955 67.778 73.031 70.1433 73.031 73.0612C73.031 75.979 75.3955 78.3444 78.3124 78.3444Z" fill="#F1F1F1"/>
<path d="M151.348 11.5142C154.526 11.5142 157.103 8.93664 157.103 5.75709C157.103 2.57754 154.526 0 151.348 0C148.169 0 145.593 2.57754 145.593 5.75709C145.593 8.93664 148.169 11.5142 151.348 11.5142Z" fill="white"/>
<path opacity="0.17" d="M117.051 127.053L117.565 123.08C117.565 123.08 136.755 124.482 133.757 129.195C130.758 133.909 123.476 134.337 123.476 134.337L117.051 127.053Z" fill="#2F2E41"/>
<path d="M131.536 109.781C132.635 109.902 133.694 110.265 134.636 110.844C135.579 111.422 136.381 112.203 136.987 113.129C137.538 113.974 137.913 114.921 138.089 115.915C138.266 116.908 138.239 117.927 138.012 118.91C137.784 119.893 137.361 120.82 136.766 121.636C136.172 122.451 135.419 123.137 134.552 123.654C134.235 123.842 133.903 124.005 133.561 124.142L121.765 160.234C121.424 160.946 120.944 161.583 120.356 162.11C119.767 162.636 119.08 163.041 118.334 163.301C117.588 163.56 116.798 163.67 116.01 163.624C115.222 163.577 114.45 163.375 113.74 163.029C113.03 162.683 112.396 162.201 111.873 161.609C111.35 161.017 110.949 160.327 110.693 159.58C110.438 158.832 110.332 158.042 110.383 157.253C110.434 156.465 110.64 155.694 110.99 154.986L123.534 119.295C123.192 118.114 123.147 116.867 123.401 115.664C123.656 114.462 124.203 113.34 124.995 112.4C125.786 111.459 126.797 110.728 127.938 110.271C129.079 109.814 130.315 109.646 131.536 109.781Z" fill="#FFB7B7"/>
<path d="M117.227 123.419C117.227 123.419 123.985 134.97 133.756 129.195L124.287 165.446H116.309L108.055 163.904L110.366 148.927L117.227 123.419Z" fill="#E5E5E5"/>
<path d="M165.485 131.314L159.886 123.625C159.886 123.625 162.577 115.649 173.011 118.566C173.011 118.566 179.651 133.433 165.485 131.314Z" fill="#E5E5E5"/>
<path opacity="0.17" d="M165.485 131.314L159.886 123.625C159.886 123.625 162.577 115.649 173.011 118.566C173.011 118.566 179.651 133.433 165.485 131.314Z" fill="#2F2E41"/>
<path d="M166.967 104.449C168.583 105.2 169.875 106.506 170.608 108.13C171.342 109.753 171.469 111.586 170.966 113.296L183.51 148.987C183.859 149.695 184.065 150.466 184.116 151.254C184.167 152.043 184.062 152.833 183.806 153.581C183.551 154.328 183.15 155.018 182.627 155.61C182.104 156.202 181.469 156.685 180.759 157.031C180.049 157.376 179.278 157.578 178.489 157.625C177.701 157.671 176.911 157.562 176.166 157.302C175.42 157.042 174.733 156.637 174.144 156.111C173.555 155.585 173.076 154.947 172.734 154.235L160.939 118.143C160.596 118.006 160.265 117.843 159.947 117.655C159.081 117.138 158.328 116.452 157.733 115.637C157.139 114.821 156.715 113.894 156.488 112.911C156.26 111.928 156.234 110.909 156.41 109.916C156.586 108.922 156.961 107.975 157.513 107.13C158.118 106.204 158.921 105.423 159.863 104.845C160.805 104.266 161.864 103.903 162.963 103.782C164.334 103.626 165.721 103.857 166.967 104.449Z" fill="#FFB7B7"/>
<path d="M159.886 123.625C159.886 123.625 169.124 129.232 173.011 118.565L186.028 152.852L182.16 159.619L181.601 159.666C179.293 159.858 176.974 159.487 174.841 158.585C172.708 157.683 170.826 156.277 169.357 154.487C166.36 150.836 164.319 146.495 163.42 141.857L159.886 123.625Z" fill="#E5E5E5"/>
</g>
<defs>
<clipPath id="clip0_28_673">
<rect width="278" height="257" fill="white" transform="translate(5)"/>
</clipPath>
</defs>
</svg>
