<svg width="19" height="20" viewBox="0 0 19 20" fill="none" xmlns="http://www.w3.org/2000/svg">
<g clip-path="url(#clip0_86_834)">
<path d="M9.5 12.5C10.8117 12.5 11.875 11.3807 11.875 10C11.875 8.61929 10.8117 7.5 9.5 7.5C8.18832 7.5 7.125 8.61929 7.125 10C7.125 11.3807 8.18832 12.5 9.5 12.5Z" stroke="#84878F" stroke-width="2" stroke-linecap="round" stroke-linejoin="round"/>
<path d="M15.3584 12.4999C15.253 12.7513 15.2215 13.0301 15.2681 13.3004C15.3147 13.5707 15.4371 13.8202 15.6196 14.0166L15.6671 14.0666C15.8143 14.2214 15.9311 14.4052 16.0108 14.6075C16.0905 14.8098 16.1315 15.0267 16.1315 15.2458C16.1315 15.4648 16.0905 15.6817 16.0108 15.884C15.9311 16.0863 15.8143 16.2701 15.6671 16.4249C15.5201 16.5799 15.3454 16.7028 15.1532 16.7867C14.961 16.8706 14.755 16.9137 14.5469 16.9137C14.3388 16.9137 14.1328 16.8706 13.9406 16.7867C13.7484 16.7028 13.5737 16.5799 13.4267 16.4249L13.3792 16.3749C13.1926 16.1828 12.9556 16.0539 12.6988 16.0049C12.442 15.9559 12.1771 15.989 11.9384 16.0999C11.7042 16.2056 11.5045 16.381 11.3638 16.6045C11.2232 16.8281 11.1477 17.0901 11.1467 17.3583V17.4999C11.1467 17.9419 10.9799 18.3659 10.6829 18.6784C10.386 18.991 9.98328 19.1666 9.56335 19.1666C9.14343 19.1666 8.7407 18.991 8.44377 18.6784C8.14684 18.3659 7.98002 17.9419 7.98002 17.4999V17.4249C7.97389 17.1491 7.88907 16.8816 7.73659 16.6572C7.58411 16.4328 7.37102 16.2618 7.12502 16.1666C6.88624 16.0557 6.62137 16.0226 6.36455 16.0716C6.10774 16.1206 5.87077 16.2495 5.68419 16.4416L5.63669 16.4916C5.48964 16.6465 5.31501 16.7695 5.1228 16.8533C4.93059 16.9372 4.72455 16.9804 4.51648 16.9804C4.3084 16.9804 4.10237 16.9372 3.91016 16.8533C3.71794 16.7695 3.54332 16.6465 3.39627 16.4916C3.24906 16.3368 3.13227 16.153 3.05259 15.9507C2.97291 15.7483 2.9319 15.5314 2.9319 15.3124C2.9319 15.0934 2.97291 14.8765 3.05259 14.6742C3.13227 14.4719 3.24906 14.288 3.39627 14.1332L3.44377 14.0833C3.62628 13.8869 3.74871 13.6374 3.79527 13.3671C3.84184 13.0967 3.8104 12.8179 3.70502 12.5666C3.60467 12.3201 3.43803 12.1099 3.22564 11.9618C3.01324 11.8138 2.76435 11.7343 2.5096 11.7333H2.37502C1.95509 11.7333 1.55237 11.5577 1.25543 11.2451C0.958502 10.9325 0.791687 10.5086 0.791687 10.0666C0.791687 9.62456 0.958502 9.20063 1.25543 8.88807C1.55237 8.57551 1.95509 8.39992 2.37502 8.39992H2.44627C2.70831 8.39347 2.96244 8.30418 3.17563 8.14368C3.38882 7.98317 3.55121 7.75886 3.64169 7.49992C3.74707 7.24857 3.77851 6.96976 3.73194 6.69943C3.68538 6.4291 3.56295 6.17965 3.38044 5.98325L3.33294 5.93325C3.18572 5.77846 3.06894 5.59465 2.98926 5.39232C2.90958 5.18999 2.86857 4.97311 2.86857 4.75408C2.86857 4.53506 2.90958 4.31818 2.98926 4.11585C3.06894 3.91352 3.18572 3.72971 3.33294 3.57492C3.47999 3.41996 3.65461 3.29703 3.84682 3.21315C4.03904 3.12928 4.24507 3.08611 4.45315 3.08611C4.66122 3.08611 4.86725 3.12928 5.05947 3.21315C5.25168 3.29703 5.4263 3.41996 5.57335 3.57492L5.62085 3.62492C5.80743 3.81703 6.04441 3.94591 6.30122 3.99492C6.55803 4.04394 6.82291 4.01085 7.06169 3.89992H7.12502C7.35917 3.79428 7.55887 3.61888 7.69953 3.39531C7.84019 3.17173 7.91567 2.90974 7.91669 2.64159V2.49992C7.91669 2.05789 8.0835 1.63397 8.38043 1.32141C8.67737 1.00885 9.08009 0.833252 9.50002 0.833252C9.91995 0.833252 10.3227 1.00885 10.6196 1.32141C10.9165 1.63397 11.0834 2.05789 11.0834 2.49992V2.57492C11.0844 2.84307 11.1599 3.10506 11.3005 3.32864C11.4412 3.55221 11.6409 3.72762 11.875 3.83325C12.1138 3.94418 12.3787 3.97727 12.6355 3.92826C12.8923 3.87924 13.1293 3.75037 13.3159 3.55825L13.3634 3.50825C13.5104 3.35329 13.685 3.23036 13.8772 3.14649C14.0695 3.06261 14.2755 3.01944 14.4836 3.01944C14.6916 3.01944 14.8977 3.06261 15.0899 3.14649C15.2821 3.23036 15.4567 3.35329 15.6038 3.50825C15.751 3.66304 15.8678 3.84685 15.9474 4.04918C16.0271 4.25151 16.0681 4.46839 16.0681 4.68742C16.0681 4.90644 16.0271 5.12332 15.9474 5.32565C15.8678 5.52798 15.751 5.7118 15.6038 5.86658L15.5563 5.91658C15.3738 6.11298 15.2513 6.36243 15.2048 6.63276C15.1582 6.90309 15.1896 7.1819 15.295 7.43325V7.49992C15.3954 7.74639 15.562 7.9566 15.7744 8.10466C15.9868 8.25272 16.2357 8.33218 16.4904 8.33325H16.625C17.0449 8.33325 17.4477 8.50885 17.7446 8.82141C18.0415 9.13397 18.2084 9.55789 18.2084 9.99992C18.2084 10.4419 18.0415 10.8659 17.7446 11.1784C17.4477 11.491 17.0449 11.6666 16.625 11.6666H16.5538C16.299 11.6677 16.0501 11.7471 15.8377 11.8952C15.6253 12.0432 15.4587 12.2534 15.3584 12.4999V12.4999Z" stroke="#84878F" stroke-width="2" stroke-linecap="round" stroke-linejoin="round"/>
</g>
<defs>
<clipPath id="clip0_86_834">
<rect width="19" height="20" fill="white"/>
</clipPath>
</defs>
</svg>
