<svg width="19" height="20" viewBox="0 0 19 20" fill="none" xmlns="http://www.w3.org/2000/svg">
<g clip-path="url(#clip0_12_56)">
<path d="M9.5 12.5C10.8117 12.5 11.875 11.3807 11.875 10C11.875 8.61929 10.8117 7.5 9.5 7.5C8.18832 7.5 7.125 8.61929 7.125 10C7.125 11.3807 8.18832 12.5 9.5 12.5Z" stroke="#84878F" stroke-width="2" stroke-linecap="round" stroke-linejoin="round"/>
<path d="M15.3584 12.5C15.253 12.7513 15.2215 13.0301 15.2681 13.3005C15.3147 13.5708 15.4371 13.8202 15.6196 14.0166L15.6671 14.0666C15.8143 14.2214 15.9311 14.4052 16.0108 14.6076C16.0905 14.8099 16.1315 15.0268 16.1315 15.2458C16.1315 15.4648 16.0905 15.6817 16.0108 15.884C15.9311 16.0864 15.8143 16.2702 15.6671 16.425C15.5201 16.5799 15.3454 16.7029 15.1532 16.7867C14.961 16.8706 14.755 16.9138 14.5469 16.9138C14.3388 16.9138 14.1328 16.8706 13.9406 16.7867C13.7484 16.7029 13.5737 16.5799 13.4267 16.425L13.3792 16.375C13.1926 16.1829 12.9556 16.054 12.6988 16.005C12.442 15.956 12.1771 15.989 11.9384 16.1C11.7042 16.2056 11.5045 16.381 11.3638 16.6046C11.2232 16.8282 11.1477 17.0902 11.1467 17.3583V17.5C11.1467 17.942 10.9799 18.3659 10.6829 18.6785C10.386 18.991 9.98328 19.1666 9.56335 19.1666C9.14343 19.1666 8.7407 18.991 8.44377 18.6785C8.14684 18.3659 7.98002 17.942 7.98002 17.5V17.425C7.97389 17.1491 7.88907 16.8816 7.73659 16.6572C7.58411 16.4328 7.37102 16.2619 7.12502 16.1666C6.88624 16.0557 6.62137 16.0226 6.36455 16.0716C6.10774 16.1207 5.87077 16.2495 5.68419 16.4416L5.63669 16.4916C5.48964 16.6466 5.31501 16.7695 5.1228 16.8534C4.93059 16.9373 4.72455 16.9805 4.51648 16.9805C4.3084 16.9805 4.10237 16.9373 3.91016 16.8534C3.71794 16.7695 3.54332 16.6466 3.39627 16.4916C3.24906 16.3369 3.13227 16.153 3.05259 15.9507C2.97291 15.7484 2.9319 15.5315 2.9319 15.3125C2.9319 15.0935 2.97291 14.8766 3.05259 14.6742C3.13227 14.4719 3.24906 14.2881 3.39627 14.1333L3.44377 14.0833C3.62628 13.8869 3.74871 13.6375 3.79527 13.3671C3.84184 13.0968 3.8104 12.818 3.70502 12.5666C3.60467 12.3202 3.43803 12.11 3.22564 11.9619C3.01324 11.8138 2.76435 11.7344 2.5096 11.7333H2.37502C1.95509 11.7333 1.55237 11.5577 1.25543 11.2452C0.958502 10.9326 0.791687 10.5087 0.791687 10.0666C0.791687 9.62462 0.958502 9.2007 1.25543 8.88813C1.55237 8.57557 1.95509 8.39998 2.37502 8.39998H2.44627C2.70831 8.39353 2.96244 8.30424 3.17563 8.14374C3.38882 7.98323 3.55121 7.75893 3.64169 7.49998C3.74707 7.24863 3.77851 6.96982 3.73194 6.69949C3.68538 6.42916 3.56295 6.17971 3.38044 5.98331L3.33294 5.93331C3.18572 5.77852 3.06894 5.59471 2.98926 5.39238C2.90958 5.19005 2.86857 4.97317 2.86857 4.75415C2.86857 4.53512 2.90958 4.31824 2.98926 4.11591C3.06894 3.91358 3.18572 3.72977 3.33294 3.57498C3.47999 3.42002 3.65461 3.29709 3.84682 3.21321C4.03904 3.12934 4.24507 3.08617 4.45315 3.08617C4.66122 3.08617 4.86725 3.12934 5.05947 3.21321C5.25168 3.29709 5.4263 3.42002 5.57335 3.57498L5.62085 3.62498C5.80743 3.81709 6.04441 3.94597 6.30122 3.99498C6.55803 4.044 6.82291 4.01091 7.06169 3.89998H7.12502C7.35917 3.79434 7.55887 3.61894 7.69953 3.39537C7.84019 3.17179 7.91567 2.9098 7.91669 2.64165V2.49998C7.91669 2.05795 8.0835 1.63403 8.38043 1.32147C8.67737 1.00891 9.08009 0.833313 9.50002 0.833313C9.91995 0.833313 10.3227 1.00891 10.6196 1.32147C10.9165 1.63403 11.0834 2.05795 11.0834 2.49998V2.57498C11.0844 2.84313 11.1599 3.10513 11.3005 3.3287C11.4412 3.55228 11.6409 3.72768 11.875 3.83331C12.1138 3.94424 12.3787 3.97733 12.6355 3.92832C12.8923 3.8793 13.1293 3.75043 13.3159 3.55831L13.3634 3.50831C13.5104 3.35335 13.685 3.23042 13.8772 3.14655C14.0695 3.06267 14.2755 3.0195 14.4836 3.0195C14.6916 3.0195 14.8977 3.06267 15.0899 3.14655C15.2821 3.23042 15.4567 3.35335 15.6038 3.50831C15.751 3.6631 15.8678 3.84692 15.9474 4.04925C16.0271 4.25158 16.0681 4.46845 16.0681 4.68748C16.0681 4.90651 16.0271 5.12338 15.9474 5.32571C15.8678 5.52804 15.751 5.71186 15.6038 5.86665L15.5563 5.91665C15.3738 6.11305 15.2513 6.36249 15.2048 6.63282C15.1582 6.90315 15.1896 7.18197 15.295 7.43331V7.49998C15.3954 7.74645 15.562 7.95666 15.7744 8.10472C15.9868 8.25279 16.2357 8.33224 16.4904 8.33331H16.625C17.0449 8.33331 17.4477 8.50891 17.7446 8.82147C18.0415 9.13403 18.2084 9.55795 18.2084 9.99998C18.2084 10.442 18.0415 10.8659 17.7446 11.1785C17.4477 11.4911 17.0449 11.6666 16.625 11.6666H16.5538C16.299 11.6677 16.0501 11.7472 15.8377 11.8952C15.6253 12.0433 15.4587 12.2535 15.3584 12.5V12.5Z" stroke="#84878F" stroke-width="2" stroke-linecap="round" stroke-linejoin="round"/>
</g>
<defs>
<clipPath id="clip0_12_56">
<rect width="19" height="20" fill="white"/>
</clipPath>
</defs>
</svg>
