<svg width="17" height="18" viewBox="0 0 17 18" fill="none" xmlns="http://www.w3.org/2000/svg">
<path d="M8.50002 16.5C12.412 16.5 15.5834 13.1421 15.5834 9C15.5834 4.85786 12.412 1.5 8.50002 1.5C4.588 1.5 1.41669 4.85786 1.41669 9C1.41669 13.1421 4.588 16.5 8.50002 16.5Z" stroke="#84878F" stroke-width="2" stroke-linecap="round" stroke-linejoin="round"/>
<path d="M8.5 13.5C10.8472 13.5 12.75 11.4853 12.75 9C12.75 6.51472 10.8472 4.5 8.5 4.5C6.15279 4.5 4.25 6.51472 4.25 9C4.25 11.4853 6.15279 13.5 8.5 13.5Z" stroke="#84878F" stroke-width="2" stroke-linecap="round" stroke-linejoin="round"/>
<path d="M8.49998 10.5C9.28238 10.5 9.91665 9.82843 9.91665 9C9.91665 8.17157 9.28238 7.5 8.49998 7.5C7.71758 7.5 7.08331 8.17157 7.08331 9C7.08331 9.82843 7.71758 10.5 8.49998 10.5Z" stroke="#84878F" stroke-width="2" stroke-linecap="round" stroke-linejoin="round"/>
</svg>
