<svg width="442" height="166" viewBox="0 0 442 166" fill="none" xmlns="http://www.w3.org/2000/svg">
<g clip-path="url(#clip0_1_591)">
<path d="M199.146 148.597C200.699 149.144 202.366 149.281 203.987 148.995C205.607 148.709 207.127 148.009 208.4 146.964C211.642 144.238 212.658 139.748 213.485 135.59L215.93 123.291L210.81 126.824C207.127 129.364 203.362 131.986 200.813 135.666C198.263 139.345 197.151 144.368 199.199 148.35" fill="#E6E6E6"/>
<path d="M199.937 164.344C199.292 159.639 198.629 154.874 199.082 150.119C199.484 145.896 200.77 141.773 203.388 138.39C204.777 136.598 206.468 135.063 208.384 133.853C208.884 133.538 209.343 134.331 208.846 134.645C205.531 136.745 202.966 139.845 201.522 143.498C199.928 147.561 199.672 151.99 199.947 156.306C200.113 158.916 200.465 161.509 200.82 164.099C200.848 164.216 200.83 164.34 200.771 164.445C200.711 164.549 200.615 164.627 200.5 164.663C200.383 164.695 200.258 164.679 200.153 164.619C200.047 164.559 199.97 164.46 199.937 164.343L199.937 164.344Z" fill="#F2F2F2"/>
<path d="M204.575 156.795C205.241 157.809 206.157 158.635 207.233 159.192C208.31 159.748 209.512 160.018 210.722 159.975C213.835 159.827 216.429 157.651 218.763 155.585L225.671 149.475L221.099 149.256C217.812 149.098 214.44 148.95 211.309 149.967C208.178 150.984 205.29 153.427 204.717 156.674" fill="#E6E6E6"/>
<path d="M198.115 167.048C201.218 161.547 204.816 155.434 211.247 153.48C213.035 152.939 214.91 152.745 216.77 152.909C217.357 152.96 217.21 153.865 216.625 153.815C213.506 153.555 210.393 154.38 207.81 156.151C205.382 157.916 203.324 160.142 201.752 162.701C200.749 164.232 199.85 165.828 198.951 167.421C198.664 167.931 197.824 167.563 198.115 167.048Z" fill="#F2F2F2"/>
<path d="M336.768 147.91C338.558 146.518 339.96 144.689 340.837 142.597C341.715 140.506 342.039 138.223 341.779 135.968C341.042 130.18 336.607 125.655 332.414 121.597L320.011 109.592L320.279 118.16C320.472 124.321 320.698 130.639 323.053 136.337C325.408 142.035 330.389 147.069 336.522 147.665" fill="#E6E6E6"/>
<path d="M355.572 158.734C349.65 155.974 343.643 153.189 338.481 149.119C333.896 145.505 330.085 140.94 328.124 135.384C327.088 132.438 326.572 129.334 326.602 126.212C326.609 125.398 327.869 125.456 327.862 126.267C327.819 131.674 329.492 136.957 332.642 141.354C336.153 146.231 341.085 149.83 346.283 152.73C349.425 154.484 352.688 156.008 355.948 157.529C356.104 157.584 356.234 157.696 356.31 157.843C356.387 157.99 356.406 158.16 356.362 158.32C356.311 158.479 356.199 158.612 356.051 158.689C355.904 158.767 355.731 158.783 355.571 158.734L355.572 158.734Z" fill="#F2F2F2"/>
<path d="M350.299 147.731C351.969 147.715 353.606 147.27 355.053 146.438C356.5 145.605 357.707 144.414 358.56 142.978C360.71 139.261 360.127 134.634 359.478 130.388L357.56 117.828L353.898 122.962C351.265 126.653 348.579 130.451 347.421 134.837C346.262 139.224 346.936 144.392 350.265 147.476" fill="#E6E6E6"/>
<path d="M357.341 162.862C353.292 155.165 348.904 146.437 351.439 137.528C352.146 135.053 353.319 132.736 354.896 130.702C355.392 130.06 356.33 130.905 355.836 131.546C353.21 134.966 351.844 139.189 351.966 143.502C352.074 147.646 353.357 151.646 355.026 155.406C356.048 157.71 357.224 159.942 358.397 162.171C358.772 162.884 357.721 163.582 357.341 162.862Z" fill="#F2F2F2"/>
<path d="M267.548 44.8119C267.097 44.6153 266.735 44.2596 266.529 43.8124C266.323 43.3652 266.289 42.8579 266.432 42.3869C266.455 42.3147 266.47 42.24 266.476 42.1644C266.489 41.9486 266.432 41.7343 266.314 41.5533C266.196 41.3722 266.023 41.2341 265.821 41.1593C265.618 41.0844 265.397 41.0769 265.19 41.1379C264.983 41.1988 264.801 41.3249 264.671 41.4975C264.627 41.5588 264.589 41.6251 264.56 41.6951C264.364 42.1465 264.009 42.5099 263.563 42.7161C263.116 42.9222 262.61 42.9568 262.14 42.8131C262.068 42.7899 261.993 42.7752 261.918 42.7695C261.702 42.7564 261.488 42.8131 261.308 42.9312C261.127 43.0494 260.989 43.2227 260.915 43.4256C260.84 43.6284 260.832 43.8499 260.893 44.0573C260.954 44.2647 261.08 44.447 261.252 44.5772C261.313 44.6219 261.379 44.6593 261.449 44.6885C261.9 44.8851 262.263 45.2409 262.468 45.688C262.674 46.1352 262.709 46.6426 262.565 47.1135C262.542 47.1857 262.527 47.2604 262.522 47.3361C262.509 47.5518 262.565 47.7661 262.683 47.9472C262.801 48.1282 262.974 48.2663 263.176 48.3412C263.379 48.416 263.6 48.4235 263.807 48.3626C264.014 48.3016 264.196 48.1755 264.326 48.0029C264.371 47.9416 264.408 47.8753 264.437 47.8053C264.633 47.3539 264.988 46.9905 265.435 46.7843C265.881 46.5782 266.387 46.5436 266.857 46.6873C266.929 46.7105 267.004 46.7252 267.079 46.7309C267.295 46.7441 267.509 46.6874 267.689 46.5692C267.87 46.451 268.008 46.2777 268.083 46.0749C268.157 45.872 268.165 45.6505 268.104 45.4431C268.043 45.2357 267.917 45.0534 267.745 44.9232C267.684 44.8785 267.618 44.8411 267.548 44.8119Z" fill="#CBCBCB"/>
<path d="M316.659 97.1905C316.208 96.9939 315.846 96.6382 315.64 96.191C315.434 95.7439 315.4 95.2365 315.543 94.7655C315.566 94.6933 315.581 94.6186 315.587 94.543C315.6 94.3272 315.543 94.1129 315.425 93.9319C315.307 93.7509 315.134 93.6127 314.932 93.5379C314.729 93.4631 314.508 93.4556 314.301 93.5165C314.094 93.5774 313.912 93.7035 313.782 93.8762C313.738 93.9374 313.7 94.0037 313.671 94.0737C313.475 94.5252 313.12 94.8885 312.674 95.0947C312.227 95.3009 311.721 95.3354 311.251 95.1917C311.179 95.1685 311.104 95.1539 311.029 95.1481C310.813 95.135 310.6 95.1917 310.419 95.3099C310.238 95.428 310.1 95.6014 310.026 95.8042C309.951 96.007 309.943 96.2285 310.004 96.436C310.065 96.6434 310.191 96.8257 310.363 96.9558C310.424 97.0006 310.491 97.0379 310.56 97.0671C311.011 97.2637 311.374 97.6195 311.579 98.0667C311.785 98.5138 311.82 99.0212 311.676 99.4922C311.653 99.5644 311.639 99.6391 311.633 99.7147C311.62 99.9305 311.676 100.145 311.794 100.326C311.912 100.507 312.085 100.645 312.288 100.72C312.49 100.795 312.711 100.802 312.918 100.741C313.125 100.68 313.307 100.554 313.437 100.382C313.482 100.32 313.519 100.254 313.548 100.184C313.744 99.7325 314.099 99.3691 314.546 99.163C314.992 98.9568 315.498 98.9223 315.968 99.0659C316.041 99.0892 316.115 99.1038 316.191 99.1095C316.406 99.1227 316.62 99.066 316.801 98.9478C316.981 98.8297 317.119 98.6563 317.194 98.4535C317.268 98.2507 317.276 98.0291 317.215 97.8217C317.154 97.6143 317.028 97.432 316.856 97.3019C316.795 97.2571 316.729 97.2198 316.659 97.1905Z" fill="#F1F1F1"/>
<path d="M94.5854 62.4992C94.1348 62.3026 93.7721 61.9468 93.5663 61.4997C93.3605 61.0525 93.3261 60.5451 93.4695 60.0741C93.4927 60.0019 93.5073 59.9272 93.513 59.8516C93.5261 59.6358 93.4695 59.4216 93.3516 59.2405C93.2336 59.0595 93.0606 58.9213 92.8582 58.8465C92.6558 58.7717 92.4347 58.7642 92.2276 58.8251C92.0206 58.886 91.8387 59.0122 91.7088 59.1848C91.6641 59.246 91.6268 59.3123 91.5976 59.3823C91.4014 59.8338 91.0464 60.1972 90.6 60.4033C90.1537 60.6095 89.6474 60.644 89.1773 60.5004C89.1052 60.4771 89.0307 60.4625 88.9552 60.4567C88.7398 60.4436 88.5259 60.5003 88.3453 60.6185C88.1646 60.7367 88.0267 60.91 87.952 61.1128C87.8773 61.3156 87.8698 61.5372 87.9306 61.7446C87.9915 61.952 88.1173 62.1343 88.2896 62.2644C88.3507 62.3092 88.4169 62.3465 88.4868 62.3758C88.9374 62.5724 89.3001 62.9281 89.5058 63.3753C89.7116 63.8225 89.7461 64.3298 89.6027 64.8008C89.5795 64.873 89.5649 64.9477 89.5591 65.0233C89.546 65.2391 89.6026 65.4534 89.7206 65.6344C89.8385 65.8154 90.0115 65.9536 90.2139 66.0284C90.4164 66.1032 90.6375 66.1107 90.8445 66.0498C91.0515 65.9889 91.2335 65.8628 91.3633 65.6901C91.408 65.6289 91.4453 65.5626 91.4745 65.4926C91.6707 65.0411 92.0258 64.6778 92.4721 64.4716C92.9184 64.2654 93.4248 64.2309 93.8948 64.3745C93.9669 64.3978 94.0415 64.4124 94.117 64.4182C94.3323 64.4313 94.5462 64.3746 94.7269 64.2564C94.9076 64.1383 95.0455 63.9649 95.1202 63.7621C95.1948 63.5593 95.2023 63.3378 95.1415 63.1303C95.0807 62.9229 94.9548 62.7406 94.7825 62.6105C94.7214 62.5657 94.6552 62.5284 94.5854 62.4992Z" fill="#F1F1F1"/>
<path d="M183.612 59.7371C185.418 59.7371 186.883 58.2703 186.883 56.4608C186.883 54.6513 185.418 53.1845 183.612 53.1845C181.806 53.1845 180.342 54.6513 180.342 56.4608C180.342 58.2703 181.806 59.7371 183.612 59.7371Z" fill="#F1F1F1"/>
<path d="M287.47 70.2128C289.276 70.2128 290.74 68.746 290.74 66.9365C290.74 65.1271 289.276 63.6602 287.47 63.6602C285.664 63.6602 284.2 65.1271 284.2 66.9365C284.2 68.746 285.664 70.2128 287.47 70.2128Z" fill="#837CFB"/>
<path d="M165.9 54.9021C167.706 54.9021 169.17 53.4353 169.17 51.6258C169.17 49.8164 167.706 48.3495 165.9 48.3495C164.094 48.3495 162.63 49.8164 162.63 51.6258C162.63 53.4353 164.094 54.9021 165.9 54.9021Z" fill="#CBCBCB"/>
<path d="M205.245 71.4034C217.176 76.4771 230.962 70.8996 236.036 58.9457C241.11 46.9918 235.552 33.1882 223.621 28.1145C211.69 23.0408 197.904 28.6184 192.83 40.5723C187.756 52.5262 193.314 66.3298 205.245 71.4034Z" fill="#2F2E41"/>
<path d="M203.941 65.3503L197.378 62.5594L192.377 74.3406L198.94 77.1315L203.941 65.3503Z" fill="#2F2E41"/>
<path d="M217.067 70.9321L210.504 68.1412L205.503 79.9224L212.066 82.7133L217.067 70.9321Z" fill="#2F2E41"/>
<path d="M196.916 78.8582C199.936 80.1427 202.775 80.264 203.257 79.1291C203.739 77.9942 201.681 76.033 198.66 74.7485C195.64 73.464 192.801 73.3427 192.319 74.4776C191.837 75.6125 193.895 77.5737 196.916 78.8582Z" fill="#2F2E41"/>
<path d="M210.158 84.166C213.178 85.4505 216.018 85.5718 216.499 84.4369C216.981 83.3021 214.923 81.3408 211.902 80.0563C208.882 78.7718 206.043 78.6506 205.561 79.7854C205.079 80.9203 207.137 82.8816 210.158 84.166Z" fill="#2F2E41"/>
<path d="M241.727 50.2004C248.397 47.4988 253.119 43.6092 252.274 41.5126C251.429 39.416 245.336 39.9064 238.667 42.6079C231.997 45.3095 227.275 49.1992 228.12 51.2958C228.965 53.3924 235.058 52.902 241.727 50.2004Z" fill="#2F2E41"/>
<path d="M197.921 40.2333C200.015 39.3868 199.535 33.2849 196.847 26.6042C194.16 19.9236 190.284 15.194 188.189 16.0405C186.095 16.887 186.575 22.989 189.263 29.6696C191.95 36.3502 195.826 41.0798 197.921 40.2333Z" fill="#2F2E41"/>
<path d="M211.686 53.7026C215.764 55.4367 220.475 53.5305 222.209 49.4449C223.944 45.3594 222.044 40.6417 217.966 38.9077C213.889 37.1737 209.177 39.0799 207.443 43.1654C205.709 47.2509 207.608 51.9686 211.686 53.7026Z" fill="white"/>
<path d="M213.779 48.771C215.139 49.349 216.709 48.7136 217.287 47.3518C217.865 45.9899 217.232 44.4173 215.873 43.8393C214.514 43.2613 212.943 43.8967 212.365 45.2586C211.787 46.6204 212.42 48.193 213.779 48.771Z" fill="#3F3D56"/>
<path d="M214.88 62.4789C214.575 63.8312 213.746 65.0072 212.576 65.7482C211.406 66.4893 209.991 66.7347 208.641 66.4304C207.291 66.1261 206.117 65.2971 205.378 64.1258C204.639 62.9544 204.395 61.5366 204.7 60.1843L204.702 60.1743C205.34 57.359 207.75 57.2918 210.561 57.9282C213.371 58.5646 215.517 59.6636 214.88 62.4789Z" fill="white"/>
<path d="M225.973 81.4835C225.487 81.2772 224.938 81.2728 224.448 81.471C223.958 81.6693 223.567 82.0541 223.359 82.5411L221.73 86.3794C221.524 86.8668 221.519 87.4161 221.716 87.9068C221.914 88.3976 222.298 88.7896 222.784 88.9969L252.294 101.546C252.78 101.752 253.328 101.757 253.818 101.558C254.309 101.36 254.7 100.975 254.908 100.488L256.537 96.65C256.743 96.1625 256.748 95.6132 256.55 95.1225C256.353 94.6318 255.969 94.2398 255.483 94.0325L225.973 81.4835Z" fill="#E5E5E5"/>
<path d="M244.029 86.1439C243.891 85.9606 243.686 85.8396 243.459 85.8077C243.232 85.7757 243.002 85.8354 242.819 85.9736L240.914 87.4103L240.743 84.8254C240.728 84.5963 240.622 84.3827 240.45 84.2316C240.277 84.0805 240.052 84.0043 239.823 84.0196C239.594 84.035 239.381 84.1408 239.23 84.3136C239.079 84.4865 239.003 84.7122 239.018 84.9413L239.151 86.953L238.845 86.8227L235.559 94.5639L239.649 96.3033L242.935 88.5622L242.503 88.3784L243.858 87.3563C244.041 87.2181 244.162 87.0128 244.194 86.7854C244.226 86.558 244.167 86.3273 244.029 86.1439Z" fill="#837CFB"/>
<path d="M219.903 35.3255C216.066 33.6893 212.498 31.4825 209.32 28.7797C209.1 28.5891 208.946 28.3338 208.88 28.0503C208.814 27.7667 208.839 27.4695 208.952 27.201L212.692 18.3908C212.834 18.0579 213.102 17.7947 213.437 17.6592C213.772 17.5236 214.147 17.5267 214.479 17.6676L236.55 27.0533C236.883 27.1951 237.145 27.4631 237.28 27.7986C237.415 28.1342 237.412 28.5097 237.271 28.843L233.533 37.6481C233.419 37.9185 233.22 38.1448 232.967 38.2936C232.715 38.4424 232.421 38.5059 232.129 38.4745C227.921 38.0309 223.802 36.9699 219.903 35.3255Z" fill="#837CFB"/>
<path opacity="0.2" d="M237.02 28.7364L236.395 30.2089L222.67 29.3264C222.414 29.3087 222.173 29.2017 221.987 29.0241L212.369 19.8494L212.943 18.4975C213.057 18.2314 213.271 18.0213 213.539 17.9129C213.807 17.8045 214.107 17.8067 214.373 17.9189L236.444 27.3046C236.709 27.4184 236.919 27.6329 237.027 27.9012C237.135 28.1694 237.132 28.4697 237.02 28.7364Z" fill="black"/>
<path d="M223.059 27.4814C222.909 27.4175 222.771 27.327 222.652 27.2142L208.278 13.5048C208.075 13.311 207.937 13.0589 207.882 12.7832C207.827 12.5074 207.859 12.2214 207.973 11.9642C208.086 11.707 208.276 11.4912 208.517 11.3463C208.758 11.2014 209.037 11.1344 209.317 11.1545L227.753 12.4822C228.051 12.5045 228.333 12.6231 228.557 12.82L243.973 26.4578C244.186 26.6462 244.335 26.8966 244.399 27.174C244.463 27.4514 244.438 27.7418 244.329 28.0048C244.22 28.2677 244.031 28.4898 243.79 28.6402C243.548 28.7905 243.266 28.8615 242.982 28.8433L223.504 27.5873C223.351 27.5774 223.2 27.5416 223.059 27.4814Z" fill="#837CFB"/>
<path d="M207.688 20.4157L207.186 20.2024L210.279 12.9151L225.578 19.421L225.365 19.9236L210.568 13.631L207.688 20.4157Z" fill="#3F3D56"/>
<path d="M206.797 21.8167C207.351 22.0523 207.991 21.7933 208.227 21.2382C208.462 20.6831 208.204 20.042 207.65 19.8064C207.096 19.5708 206.456 19.8298 206.22 20.3849C205.984 20.9401 206.243 21.5811 206.797 21.8167Z" fill="#3F3D56"/>
<path d="M280.119 140.13C292.433 136.075 299.128 122.786 295.072 110.449C291.017 98.1113 277.747 91.397 265.433 95.4521C253.119 99.5071 246.424 112.796 250.48 125.133C254.535 137.471 267.805 144.185 280.119 140.13Z" fill="#2F2E41"/>
<path d="M275.152 136.438L268.379 138.669L272.375 150.828L279.149 148.597L275.152 136.438Z" fill="#2F2E41"/>
<path d="M288.699 131.977L281.926 134.208L285.923 146.367L292.696 144.136L288.699 131.977Z" fill="#2F2E41"/>
<path d="M278.764 151.231C281.881 150.205 284.096 148.423 283.711 147.252C283.326 146.081 280.487 145.963 277.369 146.99C274.252 148.016 272.037 149.798 272.422 150.969C272.807 152.141 275.646 152.258 278.764 151.231Z" fill="#2F2E41"/>
<path d="M292.218 146.488C295.335 145.461 297.55 143.679 297.165 142.508C296.78 141.337 293.941 141.219 290.824 142.246C287.706 143.273 285.491 145.054 285.876 146.226C286.261 147.397 289.1 147.514 292.218 146.488Z" fill="#2F2E41"/>
<path d="M293.593 100.117C296.83 93.6856 297.82 87.6455 295.804 86.6263C293.788 85.6071 289.529 89.9948 286.292 96.4265C283.055 102.858 282.065 108.898 284.081 109.918C286.098 110.937 290.356 106.549 293.593 100.117Z" fill="#2F2E41"/>
<path d="M256.482 135.319C258.53 128.414 258.436 122.293 256.272 121.647C254.107 121.002 250.692 126.076 248.644 132.981C246.596 139.887 246.69 146.007 248.855 146.653C251.019 147.298 254.434 142.224 256.482 135.319Z" fill="#2F2E41"/>
<path d="M273.307 122.569C277.515 121.183 279.803 116.642 278.417 112.425C277.031 108.208 272.496 105.914 268.287 107.299C264.079 108.685 261.791 113.227 263.177 117.444C264.563 121.66 269.098 123.955 273.307 122.569Z" fill="white"/>
<path d="M273.37 114.033C274.773 113.571 275.535 112.057 275.073 110.652C274.611 109.246 273.099 108.481 271.697 108.943C270.294 109.405 269.531 110.919 269.993 112.325C270.455 113.73 271.967 114.495 273.37 114.033Z" fill="#3F3D56"/>
<path d="M284.575 126.046C286.209 128.498 284.336 131.98 280.391 133.823C276.446 135.666 271.923 135.173 270.289 132.722L270.283 132.713C268.652 130.259 271.514 128.259 275.461 126.418C279.407 124.577 282.944 123.593 284.575 126.046Z" fill="white"/>
<path d="M260.653 107.213C257.461 109.901 253.883 112.091 250.038 113.709C249.769 113.819 249.472 113.841 249.19 113.772C248.907 113.703 248.654 113.546 248.466 113.324L242.307 106.002C242.074 105.725 241.961 105.367 241.992 105.006C242.022 104.646 242.194 104.312 242.47 104.079L260.806 88.6046C261.083 88.3719 261.44 88.2585 261.8 88.2894C262.16 88.3203 262.493 88.493 262.726 88.7695L268.882 96.0868C269.071 96.3114 269.183 96.5908 269.201 96.884C269.219 97.1771 269.143 97.4683 268.983 97.7145C266.686 101.273 263.88 104.473 260.653 107.213Z" fill="#837CFB"/>
<path opacity="0.2" d="M262.518 88.9454L263.547 90.1691L256.559 102.03C256.427 102.251 256.223 102.418 255.981 102.504L243.46 106.95L242.515 105.826C242.33 105.604 242.239 105.318 242.264 105.03C242.288 104.741 242.426 104.475 242.646 104.288L260.982 88.8135C261.203 88.6277 261.489 88.5374 261.777 88.5621C262.065 88.5868 262.331 88.7246 262.518 88.9454Z" fill="black"/>
<path d="M255.091 100.849C254.966 100.955 254.823 101.037 254.669 101.092L235.959 107.737C235.695 107.831 235.408 107.841 235.137 107.765C234.867 107.689 234.626 107.532 234.449 107.314C234.271 107.096 234.165 106.829 234.144 106.548C234.124 106.268 234.19 105.988 234.335 105.747L243.849 89.8787C244.004 89.623 244.237 89.4246 244.513 89.3133L263.63 81.7049C263.894 81.5998 264.184 81.5801 264.46 81.6484C264.736 81.7168 264.984 81.8699 265.169 82.0863C265.354 82.3026 265.466 82.5714 265.491 82.8551C265.516 83.1387 265.452 83.4229 265.307 83.668L255.386 100.5C255.308 100.632 255.208 100.75 255.091 100.849Z" fill="#837CFB"/>
<path d="M241.849 111.387L241.432 111.739L236.338 105.683L249.048 94.9565L249.4 95.3743L237.106 105.749L241.849 111.387Z" fill="#3F3D56"/>
<path d="M242.333 113.018C242.905 112.83 243.216 112.213 243.028 111.64C242.839 111.067 242.223 110.755 241.651 110.944C241.079 111.132 240.768 111.749 240.957 112.322C241.145 112.895 241.761 113.207 242.333 113.018Z" fill="#3F3D56"/>
<path d="M288.404 40.0681C284.866 37.8559 281.681 35.1217 278.957 31.9576C278.769 31.7352 278.656 31.459 278.635 31.1686C278.613 30.8781 278.684 30.5883 278.837 30.3405L283.886 22.2144C284.078 21.9074 284.383 21.6889 284.735 21.6069C285.086 21.525 285.456 21.5861 285.763 21.7771L306.12 34.476C306.427 34.6677 306.645 34.9733 306.727 35.3258C306.808 35.6783 306.747 36.049 306.557 36.3564L301.51 44.4778C301.355 44.7272 301.124 44.9201 300.852 45.0279C300.579 45.1358 300.279 45.1528 299.996 45.0766C295.908 43.9855 292.002 42.2979 288.404 40.0681Z" fill="#837CFB"/>
<path opacity="0.2" d="M306.325 36.2121L305.481 37.5703L292.06 34.5691C291.81 34.5118 291.588 34.3686 291.432 34.1644L283.343 23.6057L284.118 22.3587C284.271 22.1135 284.515 21.9391 284.796 21.8735C285.078 21.808 285.374 21.8566 285.619 22.0089L305.976 34.7078C306.221 34.8615 306.395 35.1059 306.461 35.3878C306.526 35.6697 306.477 35.966 306.325 36.2121Z" fill="black"/>
<path d="M292.728 32.8061C292.589 32.7196 292.467 32.6087 292.367 32.4789L280.279 16.7013C280.108 16.4782 280.01 16.2077 279.998 15.9267C279.986 15.6457 280.062 15.368 280.214 15.1314C280.365 14.8949 280.586 14.7112 280.847 14.6053C281.107 14.4994 281.393 14.4766 281.666 14.5399L299.673 18.712C299.963 18.7803 300.224 18.9412 300.415 19.1705L313.544 35.0391C313.726 35.2584 313.834 35.5289 313.854 35.8129C313.875 36.0969 313.806 36.3801 313.657 36.6229C313.509 36.8658 313.289 37.0561 313.027 37.1672C312.765 37.2783 312.476 37.3047 312.198 37.2427L293.151 32.9797C293.001 32.9461 292.858 32.8874 292.728 32.8061Z" fill="#837CFB"/>
<path d="M278.631 23.4391L278.169 23.1503L282.346 16.4289L296.457 25.2318L296.169 25.6949L282.52 17.1808L278.631 23.4391Z" fill="#3F3D56"/>
<path d="M278.112 24.8503C278.714 24.8503 279.202 24.3613 279.202 23.7582C279.202 23.155 278.714 22.6661 278.112 22.6661C277.51 22.6661 277.022 23.155 277.022 23.7582C277.022 24.3613 277.51 24.8503 278.112 24.8503Z" fill="#3F3D56"/>
<path d="M345.188 92.3918C358.151 92.3918 368.66 81.8629 368.66 68.8748C368.66 55.8867 358.151 45.3578 345.188 45.3578C332.225 45.3578 321.716 55.8867 321.716 68.8748C321.716 81.8629 332.225 92.3918 345.188 92.3918Z" fill="#2F2E41"/>
<path d="M361.46 81.0686L355.376 84.7943L362.038 95.7164L368.122 91.9908L361.46 81.0686Z" fill="#2F2E41"/>
<path d="M364.291 97.1275C367.092 95.4128 368.842 93.1699 368.2 92.1178C367.558 91.0657 364.768 91.6028 361.967 93.3174C359.167 95.0321 357.417 97.275 358.059 98.3272C358.701 99.3793 361.491 98.8422 364.291 97.1275Z" fill="#2F2E41"/>
<path d="M349.291 88.5198L343.207 92.2455L349.869 103.168L355.953 99.442L349.291 88.5198Z" fill="#2F2E41"/>
<path d="M351.968 104.325C354.768 102.61 356.518 100.367 355.876 99.315C355.234 98.2629 352.444 98.8 349.644 100.515C346.843 102.229 345.094 104.472 345.735 105.524C346.377 106.577 349.167 106.039 351.968 104.325Z" fill="#2F2E41"/>
<path d="M331.99 64.9322C333.587 63.3334 330.761 57.9054 325.678 52.8084C320.595 47.7115 315.179 44.8757 313.582 46.4745C311.985 48.0734 314.811 53.5014 319.894 58.5984C324.978 63.6953 330.393 66.5311 331.99 64.9322Z" fill="#2F2E41"/>
<path d="M376.923 88.8079C378.777 87.5178 376.956 81.674 372.854 75.7555C368.752 69.837 363.924 66.0849 362.069 67.375C360.215 68.6652 362.037 74.5089 366.138 80.4275C370.24 86.346 375.069 90.098 376.923 88.8079Z" fill="#2F2E41"/>
<path d="M338 70.3033C342.431 70.3033 346.022 66.7048 346.022 62.2658C346.022 57.8268 342.431 54.2283 338 54.2283C333.57 54.2283 329.978 57.8268 329.978 62.2658C329.978 66.7048 333.57 70.3033 338 70.3033Z" fill="white"/>
<path d="M335.275 62.2147C336.752 62.2147 337.949 61.0152 337.949 59.5355C337.949 58.0559 336.752 56.8564 335.275 56.8564C333.798 56.8564 332.601 58.0559 332.601 59.5355C332.601 61.0152 333.798 62.2147 335.275 62.2147Z" fill="#3F3D56"/>
<path d="M327.67 75.6731C326.149 78.1702 328.176 81.5484 332.197 83.2185C336.218 84.8886 340.712 84.2182 342.233 81.7211L342.238 81.7123C343.755 79.2135 340.808 77.3441 336.786 75.6764C332.763 74.0088 329.187 73.1744 327.67 75.6731Z" fill="white"/>
<path d="M337.312 39.3463C339.408 30.8896 348.659 25.913 357.976 28.2307C367.292 30.5485 373.146 39.283 371.05 47.7397C368.954 56.1964 362.001 56.2237 352.684 53.9059C343.368 51.5881 335.216 47.803 337.312 39.3463Z" fill="#E6E6E6"/>
</g>
<defs>
<clipPath id="clip0_1_591">
<rect width="442" height="166" fill="white"/>
</clipPath>
</defs>
</svg>
